<?xml version="1.0" encoding="utf-8" standalone="no"?>
<!DOCTYPE svg PUBLIC "-//W3C//DTD SVG 1.1//EN"
  "http://www.w3.org/Graphics/SVG/1.1/DTD/svg11.dtd">
<svg height="720pt" version="1.1" viewBox="0 0 1440 720" width="1440pt" xmlns="http://www.w3.org/2000/svg" xmlns:xlink="http://www.w3.org/1999/xlink">
 <metadata>
  <rdf:RDF xmlns:cc="http://creativecommons.org/ns#" xmlns:dc="http://purl.org/dc/elements/1.1/" xmlns:rdf="http://www.w3.org/1999/02/22-rdf-syntax-ns#">
   <cc:Work>
    <dc:type rdf:resource="http://purl.org/dc/dcmitype/StillImage"/>
    <dc:date>2021-07-22T19:21:21.567676</dc:date>
    <dc:format>image/svg+xml</dc:format>
    <dc:creator>
     <cc:Agent>
      <dc:title>Matplotlib v3.4.2, https://matplotlib.org/</dc:title>
     </cc:Agent>
    </dc:creator>
   </cc:Work>
  </rdf:RDF>
 </metadata>
 <defs>
  <style type="text/css">*{stroke-linecap:butt;stroke-linejoin:round;}</style>
 </defs>
 <g id="figure_1">
  <g id="patch_1">
   <path d="M 0 720 
L 1440 720 
L 1440 0 
L 0 0 
z
" style="fill:#ffffff;"/>
  </g>
  <g id="axes_1">
   <g id="patch_2">
    <path d="M 180 640.8 
L 1296 640.8 
L 1296 86.4 
L 180 86.4 
z
" style="fill:#ffffff;"/>
   </g>
   <g id="matplotlib.axis_1">
    <g id="xtick_1">
     <g id="line2d_1">
      <defs>
       <path d="M 0 0 
L 0 3.5 
" id="m90bab2889e" style="stroke:#000000;stroke-width:0.8;"/>
      </defs>
      <g>
       <use style="stroke:#000000;stroke-width:0.8;" x="230.727273" xlink:href="#m90bab2889e" y="640.8"/>
      </g>
     </g>
     <g id="text_1">
      <!-- 0 -->
      <g transform="translate(227.546023 655.398438)scale(0.1 -0.1)">
       <defs>
        <path d="M 2034 4250 
Q 1547 4250 1301 3770 
Q 1056 3291 1056 2328 
Q 1056 1369 1301 889 
Q 1547 409 2034 409 
Q 2525 409 2770 889 
Q 3016 1369 3016 2328 
Q 3016 3291 2770 3770 
Q 2525 4250 2034 4250 
z
M 2034 4750 
Q 2819 4750 3233 4129 
Q 3647 3509 3647 2328 
Q 3647 1150 3233 529 
Q 2819 -91 2034 -91 
Q 1250 -91 836 529 
Q 422 1150 422 2328 
Q 422 3509 836 4129 
Q 1250 4750 2034 4750 
z
" id="DejaVuSans-30" transform="scale(0.015625)"/>
       </defs>
       <use xlink:href="#DejaVuSans-30"/>
      </g>
     </g>
    </g>
    <g id="xtick_2">
     <g id="line2d_2">
      <g>
       <use style="stroke:#000000;stroke-width:0.8;" x="371.323927" xlink:href="#m90bab2889e" y="640.8"/>
      </g>
     </g>
     <g id="text_2">
      <!-- 250 -->
      <g transform="translate(361.780177 655.398438)scale(0.1 -0.1)">
       <defs>
        <path d="M 1228 531 
L 3431 531 
L 3431 0 
L 469 0 
L 469 531 
Q 828 903 1448 1529 
Q 2069 2156 2228 2338 
Q 2531 2678 2651 2914 
Q 2772 3150 2772 3378 
Q 2772 3750 2511 3984 
Q 2250 4219 1831 4219 
Q 1534 4219 1204 4116 
Q 875 4013 500 3803 
L 500 4441 
Q 881 4594 1212 4672 
Q 1544 4750 1819 4750 
Q 2544 4750 2975 4387 
Q 3406 4025 3406 3419 
Q 3406 3131 3298 2873 
Q 3191 2616 2906 2266 
Q 2828 2175 2409 1742 
Q 1991 1309 1228 531 
z
" id="DejaVuSans-32" transform="scale(0.015625)"/>
        <path d="M 691 4666 
L 3169 4666 
L 3169 4134 
L 1269 4134 
L 1269 2991 
Q 1406 3038 1543 3061 
Q 1681 3084 1819 3084 
Q 2600 3084 3056 2656 
Q 3513 2228 3513 1497 
Q 3513 744 3044 326 
Q 2575 -91 1722 -91 
Q 1428 -91 1123 -41 
Q 819 9 494 109 
L 494 744 
Q 775 591 1075 516 
Q 1375 441 1709 441 
Q 2250 441 2565 725 
Q 2881 1009 2881 1497 
Q 2881 1984 2565 2268 
Q 2250 2553 1709 2553 
Q 1456 2553 1204 2497 
Q 953 2441 691 2322 
L 691 4666 
z
" id="DejaVuSans-35" transform="scale(0.015625)"/>
       </defs>
       <use xlink:href="#DejaVuSans-32"/>
       <use x="63.623047" xlink:href="#DejaVuSans-35"/>
       <use x="127.246094" xlink:href="#DejaVuSans-30"/>
      </g>
     </g>
    </g>
    <g id="xtick_3">
     <g id="line2d_3">
      <g>
       <use style="stroke:#000000;stroke-width:0.8;" x="511.920581" xlink:href="#m90bab2889e" y="640.8"/>
      </g>
     </g>
     <g id="text_3">
      <!-- 500 -->
      <g transform="translate(502.376831 655.398438)scale(0.1 -0.1)">
       <use xlink:href="#DejaVuSans-35"/>
       <use x="63.623047" xlink:href="#DejaVuSans-30"/>
       <use x="127.246094" xlink:href="#DejaVuSans-30"/>
      </g>
     </g>
    </g>
    <g id="xtick_4">
     <g id="line2d_4">
      <g>
       <use style="stroke:#000000;stroke-width:0.8;" x="652.517234" xlink:href="#m90bab2889e" y="640.8"/>
      </g>
     </g>
     <g id="text_4">
      <!-- 750 -->
      <g transform="translate(642.973484 655.398438)scale(0.1 -0.1)">
       <defs>
        <path d="M 525 4666 
L 3525 4666 
L 3525 4397 
L 1831 0 
L 1172 0 
L 2766 4134 
L 525 4134 
L 525 4666 
z
" id="DejaVuSans-37" transform="scale(0.015625)"/>
       </defs>
       <use xlink:href="#DejaVuSans-37"/>
       <use x="63.623047" xlink:href="#DejaVuSans-35"/>
       <use x="127.246094" xlink:href="#DejaVuSans-30"/>
      </g>
     </g>
    </g>
    <g id="xtick_5">
     <g id="line2d_5">
      <g>
       <use style="stroke:#000000;stroke-width:0.8;" x="793.113888" xlink:href="#m90bab2889e" y="640.8"/>
      </g>
     </g>
     <g id="text_5">
      <!-- 1000 -->
      <g transform="translate(780.388888 655.398438)scale(0.1 -0.1)">
       <defs>
        <path d="M 794 531 
L 1825 531 
L 1825 4091 
L 703 3866 
L 703 4441 
L 1819 4666 
L 2450 4666 
L 2450 531 
L 3481 531 
L 3481 0 
L 794 0 
L 794 531 
z
" id="DejaVuSans-31" transform="scale(0.015625)"/>
       </defs>
       <use xlink:href="#DejaVuSans-31"/>
       <use x="63.623047" xlink:href="#DejaVuSans-30"/>
       <use x="127.246094" xlink:href="#DejaVuSans-30"/>
       <use x="190.869141" xlink:href="#DejaVuSans-30"/>
      </g>
     </g>
    </g>
    <g id="xtick_6">
     <g id="line2d_6">
      <g>
       <use style="stroke:#000000;stroke-width:0.8;" x="933.710542" xlink:href="#m90bab2889e" y="640.8"/>
      </g>
     </g>
     <g id="text_6">
      <!-- 1250 -->
      <g transform="translate(920.985542 655.398438)scale(0.1 -0.1)">
       <use xlink:href="#DejaVuSans-31"/>
       <use x="63.623047" xlink:href="#DejaVuSans-32"/>
       <use x="127.246094" xlink:href="#DejaVuSans-35"/>
       <use x="190.869141" xlink:href="#DejaVuSans-30"/>
      </g>
     </g>
    </g>
    <g id="xtick_7">
     <g id="line2d_7">
      <g>
       <use style="stroke:#000000;stroke-width:0.8;" x="1074.307196" xlink:href="#m90bab2889e" y="640.8"/>
      </g>
     </g>
     <g id="text_7">
      <!-- 1500 -->
      <g transform="translate(1061.582196 655.398438)scale(0.1 -0.1)">
       <use xlink:href="#DejaVuSans-31"/>
       <use x="63.623047" xlink:href="#DejaVuSans-35"/>
       <use x="127.246094" xlink:href="#DejaVuSans-30"/>
       <use x="190.869141" xlink:href="#DejaVuSans-30"/>
      </g>
     </g>
    </g>
    <g id="xtick_8">
     <g id="line2d_8">
      <g>
       <use style="stroke:#000000;stroke-width:0.8;" x="1214.90385" xlink:href="#m90bab2889e" y="640.8"/>
      </g>
     </g>
     <g id="text_8">
      <!-- 1750 -->
      <g transform="translate(1202.17885 655.398438)scale(0.1 -0.1)">
       <use xlink:href="#DejaVuSans-31"/>
       <use x="63.623047" xlink:href="#DejaVuSans-37"/>
       <use x="127.246094" xlink:href="#DejaVuSans-35"/>
       <use x="190.869141" xlink:href="#DejaVuSans-30"/>
      </g>
     </g>
    </g>
    <g id="text_9">
     <!-- Time -->
     <g transform="translate(725.766406 669.076563)scale(0.1 -0.1)">
      <defs>
       <path d="M -19 4666 
L 3928 4666 
L 3928 4134 
L 2272 4134 
L 2272 0 
L 1638 0 
L 1638 4134 
L -19 4134 
L -19 4666 
z
" id="DejaVuSans-54" transform="scale(0.015625)"/>
       <path d="M 603 3500 
L 1178 3500 
L 1178 0 
L 603 0 
L 603 3500 
z
M 603 4863 
L 1178 4863 
L 1178 4134 
L 603 4134 
L 603 4863 
z
" id="DejaVuSans-69" transform="scale(0.015625)"/>
       <path d="M 3328 2828 
Q 3544 3216 3844 3400 
Q 4144 3584 4550 3584 
Q 5097 3584 5394 3201 
Q 5691 2819 5691 2113 
L 5691 0 
L 5113 0 
L 5113 2094 
Q 5113 2597 4934 2840 
Q 4756 3084 4391 3084 
Q 3944 3084 3684 2787 
Q 3425 2491 3425 1978 
L 3425 0 
L 2847 0 
L 2847 2094 
Q 2847 2600 2669 2842 
Q 2491 3084 2119 3084 
Q 1678 3084 1418 2786 
Q 1159 2488 1159 1978 
L 1159 0 
L 581 0 
L 581 3500 
L 1159 3500 
L 1159 2956 
Q 1356 3278 1631 3431 
Q 1906 3584 2284 3584 
Q 2666 3584 2933 3390 
Q 3200 3197 3328 2828 
z
" id="DejaVuSans-6d" transform="scale(0.015625)"/>
       <path d="M 3597 1894 
L 3597 1613 
L 953 1613 
Q 991 1019 1311 708 
Q 1631 397 2203 397 
Q 2534 397 2845 478 
Q 3156 559 3463 722 
L 3463 178 
Q 3153 47 2828 -22 
Q 2503 -91 2169 -91 
Q 1331 -91 842 396 
Q 353 884 353 1716 
Q 353 2575 817 3079 
Q 1281 3584 2069 3584 
Q 2775 3584 3186 3129 
Q 3597 2675 3597 1894 
z
M 3022 2063 
Q 3016 2534 2758 2815 
Q 2500 3097 2075 3097 
Q 1594 3097 1305 2825 
Q 1016 2553 972 2059 
L 3022 2063 
z
" id="DejaVuSans-65" transform="scale(0.015625)"/>
      </defs>
      <use xlink:href="#DejaVuSans-54"/>
      <use x="57.958984" xlink:href="#DejaVuSans-69"/>
      <use x="85.742188" xlink:href="#DejaVuSans-6d"/>
      <use x="183.154297" xlink:href="#DejaVuSans-65"/>
     </g>
    </g>
   </g>
   <g id="matplotlib.axis_2">
    <g id="ytick_1">
     <g id="line2d_9">
      <defs>
       <path d="M 0 0 
L -3.5 0 
" id="mfdb776ce8a" style="stroke:#000000;stroke-width:0.8;"/>
      </defs>
      <g>
       <use style="stroke:#000000;stroke-width:0.8;" x="180" xlink:href="#mfdb776ce8a" y="584.386945"/>
      </g>
     </g>
     <g id="text_10">
      <!-- −30 -->
      <g transform="translate(151.895312 588.186163)scale(0.1 -0.1)">
       <defs>
        <path d="M 678 2272 
L 4684 2272 
L 4684 1741 
L 678 1741 
L 678 2272 
z
" id="DejaVuSans-2212" transform="scale(0.015625)"/>
        <path d="M 2597 2516 
Q 3050 2419 3304 2112 
Q 3559 1806 3559 1356 
Q 3559 666 3084 287 
Q 2609 -91 1734 -91 
Q 1441 -91 1130 -33 
Q 819 25 488 141 
L 488 750 
Q 750 597 1062 519 
Q 1375 441 1716 441 
Q 2309 441 2620 675 
Q 2931 909 2931 1356 
Q 2931 1769 2642 2001 
Q 2353 2234 1838 2234 
L 1294 2234 
L 1294 2753 
L 1863 2753 
Q 2328 2753 2575 2939 
Q 2822 3125 2822 3475 
Q 2822 3834 2567 4026 
Q 2313 4219 1838 4219 
Q 1578 4219 1281 4162 
Q 984 4106 628 3988 
L 628 4550 
Q 988 4650 1302 4700 
Q 1616 4750 1894 4750 
Q 2613 4750 3031 4423 
Q 3450 4097 3450 3541 
Q 3450 3153 3228 2886 
Q 3006 2619 2597 2516 
z
" id="DejaVuSans-33" transform="scale(0.015625)"/>
       </defs>
       <use xlink:href="#DejaVuSans-2212"/>
       <use x="83.789062" xlink:href="#DejaVuSans-33"/>
       <use x="147.412109" xlink:href="#DejaVuSans-30"/>
      </g>
     </g>
    </g>
    <g id="ytick_2">
     <g id="line2d_10">
      <g>
       <use style="stroke:#000000;stroke-width:0.8;" x="180" xlink:href="#mfdb776ce8a" y="506.354306"/>
      </g>
     </g>
     <g id="text_11">
      <!-- −25 -->
      <g transform="translate(151.895312 510.153525)scale(0.1 -0.1)">
       <use xlink:href="#DejaVuSans-2212"/>
       <use x="83.789062" xlink:href="#DejaVuSans-32"/>
       <use x="147.412109" xlink:href="#DejaVuSans-35"/>
      </g>
     </g>
    </g>
    <g id="ytick_3">
     <g id="line2d_11">
      <g>
       <use style="stroke:#000000;stroke-width:0.8;" x="180" xlink:href="#mfdb776ce8a" y="428.321667"/>
      </g>
     </g>
     <g id="text_12">
      <!-- −20 -->
      <g transform="translate(151.895312 432.120886)scale(0.1 -0.1)">
       <use xlink:href="#DejaVuSans-2212"/>
       <use x="83.789062" xlink:href="#DejaVuSans-32"/>
       <use x="147.412109" xlink:href="#DejaVuSans-30"/>
      </g>
     </g>
    </g>
    <g id="ytick_4">
     <g id="line2d_12">
      <g>
       <use style="stroke:#000000;stroke-width:0.8;" x="180" xlink:href="#mfdb776ce8a" y="350.289028"/>
      </g>
     </g>
     <g id="text_13">
      <!-- −15 -->
      <g transform="translate(151.895312 354.088247)scale(0.1 -0.1)">
       <use xlink:href="#DejaVuSans-2212"/>
       <use x="83.789062" xlink:href="#DejaVuSans-31"/>
       <use x="147.412109" xlink:href="#DejaVuSans-35"/>
      </g>
     </g>
    </g>
    <g id="ytick_5">
     <g id="line2d_13">
      <g>
       <use style="stroke:#000000;stroke-width:0.8;" x="180" xlink:href="#mfdb776ce8a" y="272.25639"/>
      </g>
     </g>
     <g id="text_14">
      <!-- −10 -->
      <g transform="translate(151.895312 276.055608)scale(0.1 -0.1)">
       <use xlink:href="#DejaVuSans-2212"/>
       <use x="83.789062" xlink:href="#DejaVuSans-31"/>
       <use x="147.412109" xlink:href="#DejaVuSans-30"/>
      </g>
     </g>
    </g>
    <g id="ytick_6">
     <g id="line2d_14">
      <g>
       <use style="stroke:#000000;stroke-width:0.8;" x="180" xlink:href="#mfdb776ce8a" y="194.223751"/>
      </g>
     </g>
     <g id="text_15">
      <!-- −5 -->
      <g transform="translate(158.257812 198.02297)scale(0.1 -0.1)">
       <use xlink:href="#DejaVuSans-2212"/>
       <use x="83.789062" xlink:href="#DejaVuSans-35"/>
      </g>
     </g>
    </g>
    <g id="ytick_7">
     <g id="line2d_15">
      <g>
       <use style="stroke:#000000;stroke-width:0.8;" x="180" xlink:href="#mfdb776ce8a" y="116.191112"/>
      </g>
     </g>
     <g id="text_16">
      <!-- 0 -->
      <g transform="translate(166.6375 119.990331)scale(0.1 -0.1)">
       <use xlink:href="#DejaVuSans-30"/>
      </g>
     </g>
    </g>
    <g id="text_17">
     <!-- Delta -->
     <g transform="translate(145.815625 376.939844)rotate(-90)scale(0.1 -0.1)">
      <defs>
       <path d="M 1259 4147 
L 1259 519 
L 2022 519 
Q 2988 519 3436 956 
Q 3884 1394 3884 2338 
Q 3884 3275 3436 3711 
Q 2988 4147 2022 4147 
L 1259 4147 
z
M 628 4666 
L 1925 4666 
Q 3281 4666 3915 4102 
Q 4550 3538 4550 2338 
Q 4550 1131 3912 565 
Q 3275 0 1925 0 
L 628 0 
L 628 4666 
z
" id="DejaVuSans-44" transform="scale(0.015625)"/>
       <path d="M 603 4863 
L 1178 4863 
L 1178 0 
L 603 0 
L 603 4863 
z
" id="DejaVuSans-6c" transform="scale(0.015625)"/>
       <path d="M 1172 4494 
L 1172 3500 
L 2356 3500 
L 2356 3053 
L 1172 3053 
L 1172 1153 
Q 1172 725 1289 603 
Q 1406 481 1766 481 
L 2356 481 
L 2356 0 
L 1766 0 
Q 1100 0 847 248 
Q 594 497 594 1153 
L 594 3053 
L 172 3053 
L 172 3500 
L 594 3500 
L 594 4494 
L 1172 4494 
z
" id="DejaVuSans-74" transform="scale(0.015625)"/>
       <path d="M 2194 1759 
Q 1497 1759 1228 1600 
Q 959 1441 959 1056 
Q 959 750 1161 570 
Q 1363 391 1709 391 
Q 2188 391 2477 730 
Q 2766 1069 2766 1631 
L 2766 1759 
L 2194 1759 
z
M 3341 1997 
L 3341 0 
L 2766 0 
L 2766 531 
Q 2569 213 2275 61 
Q 1981 -91 1556 -91 
Q 1019 -91 701 211 
Q 384 513 384 1019 
Q 384 1609 779 1909 
Q 1175 2209 1959 2209 
L 2766 2209 
L 2766 2266 
Q 2766 2663 2505 2880 
Q 2244 3097 1772 3097 
Q 1472 3097 1187 3025 
Q 903 2953 641 2809 
L 641 3341 
Q 956 3463 1253 3523 
Q 1550 3584 1831 3584 
Q 2591 3584 2966 3190 
Q 3341 2797 3341 1997 
z
" id="DejaVuSans-61" transform="scale(0.015625)"/>
      </defs>
      <use xlink:href="#DejaVuSans-44"/>
      <use x="77.001953" xlink:href="#DejaVuSans-65"/>
      <use x="138.525391" xlink:href="#DejaVuSans-6c"/>
      <use x="166.308594" xlink:href="#DejaVuSans-74"/>
      <use x="205.517578" xlink:href="#DejaVuSans-61"/>
     </g>
    </g>
   </g>
   <g id="line2d_16">
    <path clip-path="url(#p3cce127753)" d="M 230.727273 116.191112 
L 235.788752 116.191112 
L 236.351139 147.404168 
L 236.913525 209.830279 
L 237.475912 116.191112 
L 238.038299 147.404168 
L 238.600685 147.404168 
L 239.163072 116.191112 
L 239.725459 147.404168 
L 240.287845 116.191112 
L 240.850232 116.191112 
L 241.412618 147.404168 
L 241.975005 116.191112 
L 242.537392 147.404168 
L 243.099778 116.191112 
L 246.474098 116.191112 
L 247.036485 241.043334 
L 247.598871 116.191112 
L 249.286031 116.191112 
L 249.848418 147.404168 
L 250.410804 116.191112 
L 250.973191 116.191112 
L 251.535578 178.617223 
L 252.097964 178.617223 
L 252.660351 116.191112 
L 258.846604 116.191112 
L 259.40899 147.404168 
L 259.971377 116.191112 
L 261.09615 116.191112 
L 261.658537 241.043334 
L 262.220923 116.191112 
L 262.78331 116.191112 
L 263.345696 241.043334 
L 263.908083 178.617223 
L 264.47047 178.617223 
L 265.032856 241.043334 
L 265.595243 116.191112 
L 267.844789 116.191112 
L 268.407176 147.404168 
L 268.969563 116.191112 
L 269.531949 116.191112 
L 270.094336 147.404168 
L 270.656722 116.191112 
L 272.343882 116.191112 
L 272.906269 147.404168 
L 273.468656 209.830279 
L 274.031042 116.191112 
L 275.155815 116.191112 
L 275.718202 272.25639 
L 276.280589 116.191112 
L 276.842975 116.191112 
L 277.405362 241.043334 
L 277.967748 116.191112 
L 282.466841 116.191112 
L 283.029228 209.830279 
L 283.591615 116.191112 
L 284.154001 209.830279 
L 284.716388 116.191112 
L 285.278774 365.895556 
L 285.841161 116.191112 
L 286.403548 116.191112 
L 286.965934 178.617223 
L 287.528321 116.191112 
L 293.714574 116.191112 
L 294.27696 334.682501 
L 294.839347 272.25639 
L 295.401734 116.191112 
L 297.088893 116.191112 
L 297.65128 209.830279 
L 298.213667 116.191112 
L 306.087079 116.191112 
L 306.649466 147.404168 
L 307.211852 116.191112 
L 309.461399 116.191112 
L 310.023786 147.404168 
L 310.586172 147.404168 
L 311.148559 116.191112 
L 319.021971 116.191112 
L 319.584358 209.830279 
L 320.146745 116.191112 
L 320.709131 147.404168 
L 321.271518 116.191112 
L 321.833904 116.191112 
L 322.396291 147.404168 
L 322.958678 116.191112 
L 355.577101 116.191112 
L 356.139488 147.404168 
L 356.701875 116.191112 
L 368.511994 116.191112 
L 369.07438 147.404168 
L 369.636767 116.191112 
L 370.199153 116.191112 
L 370.76154 178.617223 
L 371.323927 116.191112 
L 382.571659 116.191112 
L 383.134046 147.404168 
L 383.696432 116.191112 
L 394.944164 116.191112 
L 395.506551 147.404168 
L 396.068938 116.191112 
L 408.441443 116.191112 
L 409.00383 147.404168 
L 409.566216 116.191112 
L 419.126789 116.191112 
L 419.689176 147.404168 
L 420.251562 116.191112 
L 433.186454 116.191112 
L 433.748841 147.404168 
L 434.311228 116.191112 
L 435.998387 116.191112 
L 436.560774 147.404168 
L 437.123161 116.191112 
L 455.681919 116.191112 
L 456.244306 147.404168 
L 456.806692 116.191112 
L 460.743399 116.191112 
L 461.305785 241.043334 
L 462.430558 116.191112 
L 465.242491 116.191112 
L 465.804878 178.617223 
L 466.367265 116.191112 
L 468.616811 116.191112 
L 469.179198 209.830279 
L 469.741584 209.830279 
L 470.303971 116.191112 
L 471.991131 116.191112 
L 472.553517 147.404168 
L 473.115904 116.191112 
L 475.365451 116.191112 
L 475.927837 147.404168 
L 476.490224 116.191112 
L 477.05261 147.404168 
L 477.614997 116.191112 
L 479.864543 116.191112 
L 480.42693 209.830279 
L 480.989317 116.191112 
L 481.551703 116.191112 
L 482.11409 147.404168 
L 482.676477 116.191112 
L 484.363636 116.191112 
L 484.926023 147.404168 
L 485.48841 116.191112 
L 493.361822 116.191112 
L 495.048982 209.830279 
L 495.611369 116.191112 
L 496.173755 147.404168 
L 496.736142 116.191112 
L 503.484781 116.191112 
L 504.047168 178.617223 
L 505.171941 116.191112 
L 506.296714 116.191112 
L 506.859101 147.404168 
L 507.421488 116.191112 
L 511.358194 116.191112 
L 511.920581 147.404168 
L 512.482967 116.191112 
L 513.045354 116.191112 
L 513.60774 147.404168 
L 514.170127 116.191112 
L 514.732514 615.6 
L 515.2949 116.191112 
L 515.857287 178.617223 
L 516.98206 116.191112 
L 517.544447 147.404168 
L 518.106833 209.830279 
L 518.66922 116.191112 
L 520.918766 116.191112 
L 521.481153 147.404168 
L 522.04354 147.404168 
L 522.605926 116.191112 
L 527.667406 116.191112 
L 528.229792 334.682501 
L 528.792179 116.191112 
L 529.916952 116.191112 
L 530.479339 147.404168 
L 531.041725 116.191112 
L 531.604112 272.25639 
L 532.166499 116.191112 
L 538.352751 116.191112 
L 538.915138 178.617223 
L 539.477525 209.830279 
L 540.039911 116.191112 
L 540.602298 116.191112 
L 541.164685 147.404168 
L 541.727071 116.191112 
L 543.976618 116.191112 
L 544.539004 147.404168 
L 545.101391 116.191112 
L 550.16287 116.191112 
L 550.725257 334.682501 
L 551.287644 116.191112 
L 552.412417 116.191112 
L 552.974803 209.830279 
L 553.53719 116.191112 
L 555.22435 116.191112 
L 555.786737 178.617223 
L 556.349123 116.191112 
L 560.848216 116.191112 
L 561.410603 147.404168 
L 561.972989 116.191112 
L 562.535376 116.191112 
L 563.097763 178.617223 
L 563.660149 116.191112 
L 564.222536 303.469445 
L 564.784922 116.191112 
L 565.347309 303.469445 
L 565.909696 116.191112 
L 567.034469 116.191112 
L 567.596855 178.617223 
L 568.159242 116.191112 
L 576.032655 116.191112 
L 576.595041 147.404168 
L 577.157428 209.830279 
L 577.719815 116.191112 
L 578.844588 116.191112 
L 579.406974 241.043334 
L 579.969361 116.191112 
L 580.531748 272.25639 
L 581.094134 116.191112 
L 586.718 116.191112 
L 587.280387 147.404168 
L 587.842774 116.191112 
L 588.967547 116.191112 
L 589.529933 147.404168 
L 590.09232 116.191112 
L 593.46664 116.191112 
L 594.029026 147.404168 
L 594.591413 116.191112 
L 595.1538 116.191112 
L 595.716186 147.404168 
L 596.278573 116.191112 
L 599.090506 116.191112 
L 599.652893 147.404168 
L 600.215279 116.191112 
L 600.777666 116.191112 
L 601.340052 147.404168 
L 601.902439 147.404168 
L 602.464826 116.191112 
L 604.151985 116.191112 
L 604.714372 147.404168 
L 605.276759 116.191112 
L 606.963919 116.191112 
L 607.526305 147.404168 
L 608.088692 116.191112 
L 609.213465 116.191112 
L 609.775852 334.682501 
L 610.338238 116.191112 
L 612.025398 116.191112 
L 613.150171 178.617223 
L 613.712558 116.191112 
L 614.274945 147.404168 
L 614.837331 116.191112 
L 621.023584 116.191112 
L 621.585971 178.617223 
L 622.148357 116.191112 
L 622.710744 303.469445 
L 623.27313 116.191112 
L 623.835517 116.191112 
L 624.397904 147.404168 
L 624.96029 116.191112 
L 625.522677 116.191112 
L 626.085063 178.617223 
L 626.64745 116.191112 
L 628.896997 116.191112 
L 629.459383 147.404168 
L 630.02177 116.191112 
L 630.584156 147.404168 
L 631.146543 116.191112 
L 631.70893 116.191112 
L 632.271316 147.404168 
L 633.396089 147.404168 
L 633.958476 116.191112 
L 634.520863 147.404168 
L 635.083249 116.191112 
L 635.645636 116.191112 
L 636.208023 209.830279 
L 636.770409 116.191112 
L 641.269502 116.191112 
L 641.831889 147.404168 
L 642.394275 116.191112 
L 643.519049 116.191112 
L 644.081435 178.617223 
L 644.643822 116.191112 
L 645.206208 116.191112 
L 645.768595 178.617223 
L 646.330982 116.191112 
L 649.142915 116.191112 
L 649.705301 147.404168 
L 650.267688 116.191112 
L 650.830075 116.191112 
L 651.392461 209.830279 
L 651.954848 116.191112 
L 653.642008 116.191112 
L 654.204394 178.617223 
L 654.766781 116.191112 
L 655.329168 209.830279 
L 655.891554 116.191112 
L 656.453941 178.617223 
L 657.016327 116.191112 
L 658.141101 116.191112 
L 658.703487 334.682501 
L 659.265874 116.191112 
L 660.390647 116.191112 
L 660.953034 209.830279 
L 661.51542 116.191112 
L 663.20258 116.191112 
L 663.764967 303.469445 
L 664.327353 116.191112 
L 666.014513 116.191112 
L 666.5769 272.25639 
L 667.139286 178.617223 
L 667.701673 116.191112 
L 668.26406 116.191112 
L 668.826446 178.617223 
L 669.95122 116.191112 
L 671.638379 116.191112 
L 672.200766 147.404168 
L 672.763153 116.191112 
L 673.325539 241.043334 
L 673.887926 116.191112 
L 675.012699 116.191112 
L 675.575086 147.404168 
L 676.137472 147.404168 
L 676.699859 209.830279 
L 677.262246 116.191112 
L 681.198952 116.191112 
L 681.761338 241.043334 
L 682.323725 147.404168 
L 682.886112 209.830279 
L 683.448498 116.191112 
L 684.010885 178.617223 
L 684.573272 116.191112 
L 686.260431 116.191112 
L 686.822818 147.404168 
L 687.385205 116.191112 
L 690.759524 116.191112 
L 691.321911 147.404168 
L 691.884298 116.191112 
L 692.446684 209.830279 
L 693.009071 116.191112 
L 695.258617 116.191112 
L 695.821004 178.617223 
L 696.38339 116.191112 
L 698.07055 116.191112 
L 698.632937 147.404168 
L 699.195324 272.25639 
L 700.320097 147.404168 
L 700.882483 116.191112 
L 704.81919 116.191112 
L 705.381576 178.617223 
L 705.943963 209.830279 
L 706.50635 209.830279 
L 707.068736 116.191112 
L 709.318283 116.191112 
L 709.880669 241.043334 
L 710.443056 116.191112 
L 711.005442 241.043334 
L 711.567829 303.469445 
L 712.130216 116.191112 
L 712.692602 178.617223 
L 713.817376 116.191112 
L 725.627494 116.191112 
L 726.189881 365.895556 
L 726.752268 116.191112 
L 734.62568 116.191112 
L 735.188067 147.404168 
L 735.750454 116.191112 
L 741.936706 116.191112 
L 742.499093 178.617223 
L 743.623866 116.191112 
L 744.186253 116.191112 
L 744.748639 147.404168 
L 745.311026 116.191112 
L 751.497279 116.191112 
L 752.059665 178.617223 
L 752.622052 116.191112 
L 763.307398 116.191112 
L 763.869784 209.830279 
L 764.432171 116.191112 
L 765.556944 116.191112 
L 766.119331 272.25639 
L 766.681717 116.191112 
L 767.244104 116.191112 
L 767.806491 178.617223 
L 768.368877 116.191112 
L 768.931264 116.191112 
L 769.49365 147.404168 
L 770.056037 116.191112 
L 771.18081 116.191112 
L 771.743197 147.404168 
L 772.305584 116.191112 
L 773.430357 116.191112 
L 773.992743 241.043334 
L 774.55513 116.191112 
L 776.24229 116.191112 
L 776.804676 178.617223 
L 777.367063 178.617223 
L 777.92945 116.191112 
L 782.990929 116.191112 
L 783.553316 209.830279 
L 784.115702 116.191112 
L 784.678089 147.404168 
L 785.240476 116.191112 
L 785.802862 116.191112 
L 786.927636 178.617223 
L 788.052409 116.191112 
L 788.614795 147.404168 
L 789.177182 116.191112 
L 789.739569 147.404168 
L 790.301955 116.191112 
L 790.864342 116.191112 
L 791.426728 147.404168 
L 791.989115 116.191112 
L 793.113888 116.191112 
L 793.676275 178.617223 
L 794.238662 116.191112 
L 794.801048 116.191112 
L 795.363435 241.043334 
L 795.925821 116.191112 
L 797.050595 116.191112 
L 797.612981 147.404168 
L 798.175368 116.191112 
L 799.862528 116.191112 
L 800.424914 147.404168 
L 800.987301 116.191112 
L 801.549688 116.191112 
L 802.112074 209.830279 
L 802.674461 116.191112 
L 803.236847 209.830279 
L 803.799234 116.191112 
L 804.361621 178.617223 
L 804.924007 116.191112 
L 808.298327 116.191112 
L 808.860714 147.404168 
L 809.4231 116.191112 
L 809.985487 116.191112 
L 810.547873 147.404168 
L 811.11026 147.404168 
L 811.672647 116.191112 
L 812.79742 116.191112 
L 813.359806 241.043334 
L 813.922193 116.191112 
L 814.48458 147.404168 
L 815.046966 147.404168 
L 815.609353 116.191112 
L 817.296513 116.191112 
L 817.858899 147.404168 
L 818.421286 116.191112 
L 818.983673 147.404168 
L 819.546059 147.404168 
L 820.108446 116.191112 
L 820.670832 147.404168 
L 821.233219 116.191112 
L 822.920379 116.191112 
L 823.482766 147.404168 
L 824.045152 116.191112 
L 830.231405 116.191112 
L 830.793792 241.043334 
L 831.356178 116.191112 
L 831.918565 116.191112 
L 832.480951 147.404168 
L 833.043338 116.191112 
L 833.605725 209.830279 
L 834.168111 116.191112 
L 838.667204 116.191112 
L 839.229591 147.404168 
L 839.791977 116.191112 
L 840.354364 272.25639 
L 840.916751 116.191112 
L 841.479137 147.404168 
L 842.041524 116.191112 
L 845.97823 116.191112 
L 846.540617 147.404168 
L 847.103003 116.191112 
L 850.477323 116.191112 
L 851.03971 241.043334 
L 851.602096 147.404168 
L 852.164483 178.617223 
L 852.72687 116.191112 
L 853.851643 116.191112 
L 854.414029 147.404168 
L 854.976416 116.191112 
L 860.600282 116.191112 
L 861.725055 241.043334 
L 862.287442 116.191112 
L 868.473695 116.191112 
L 869.036081 147.404168 
L 869.598468 116.191112 
L 870.160855 116.191112 
L 870.723241 272.25639 
L 871.285628 116.191112 
L 871.848015 178.617223 
L 872.410401 116.191112 
L 878.034267 116.191112 
L 878.596654 147.404168 
L 879.159041 116.191112 
L 879.721427 241.043334 
L 880.283814 147.404168 
L 880.8462 116.191112 
L 881.408587 116.191112 
L 881.970974 303.469445 
L 882.53336 116.191112 
L 890.969159 116.191112 
L 891.531546 178.617223 
L 892.093933 116.191112 
L 895.468252 116.191112 
L 896.030639 147.404168 
L 896.593026 116.191112 
L 897.155412 116.191112 
L 897.717799 147.404168 
L 898.280185 116.191112 
L 901.092119 116.191112 
L 901.654505 209.830279 
L 902.216892 147.404168 
L 902.779278 116.191112 
L 903.904052 116.191112 
L 904.466438 147.404168 
L 905.028825 116.191112 
L 905.591211 116.191112 
L 906.153598 147.404168 
L 906.715985 116.191112 
L 907.278371 209.830279 
L 907.840758 116.191112 
L 908.403145 116.191112 
L 908.965531 241.043334 
L 909.527918 116.191112 
L 910.090304 303.469445 
L 910.652691 147.404168 
L 911.215078 116.191112 
L 911.777464 116.191112 
L 912.339851 334.682501 
L 912.902237 116.191112 
L 913.464624 209.830279 
L 914.027011 116.191112 
L 914.589397 116.191112 
L 915.151784 147.404168 
L 915.714171 116.191112 
L 916.276557 147.404168 
L 916.838944 116.191112 
L 920.77565 116.191112 
L 921.338037 147.404168 
L 921.900423 116.191112 
L 922.46281 209.830279 
L 923.025197 209.830279 
L 923.587583 116.191112 
L 931.460996 116.191112 
L 932.023382 147.404168 
L 932.585769 116.191112 
L 933.710542 116.191112 
L 934.272929 147.404168 
L 934.835315 116.191112 
L 935.397702 116.191112 
L 935.960089 209.830279 
L 936.522475 147.404168 
L 937.084862 116.191112 
L 942.708728 116.191112 
L 943.271115 147.404168 
L 943.833501 116.191112 
L 944.395888 334.682501 
L 944.958275 116.191112 
L 946.645434 116.191112 
L 947.207821 178.617223 
L 947.770208 116.191112 
L 950.582141 116.191112 
L 951.144527 147.404168 
L 951.706914 116.191112 
L 952.831687 116.191112 
L 953.394074 521.960834 
L 953.95646 116.191112 
L 954.518847 241.043334 
L 955.081234 116.191112 
L 962.954646 116.191112 
L 963.517033 209.830279 
L 964.079419 147.404168 
L 964.641806 116.191112 
L 965.204193 147.404168 
L 965.766579 116.191112 
L 970.265672 116.191112 
L 970.828059 178.617223 
L 971.390445 116.191112 
L 971.952832 303.469445 
L 972.515219 116.191112 
L 973.077605 147.404168 
L 973.639992 116.191112 
L 974.202379 116.191112 
L 974.764765 147.404168 
L 975.327152 116.191112 
L 992.19875 116.191112 
L 992.761137 147.404168 
L 993.323523 116.191112 
L 998.94739 116.191112 
L 999.509776 209.830279 
L 1000.072163 116.191112 
L 1021.442854 116.191112 
L 1022.005241 147.404168 
L 1022.567627 116.191112 
L 1027.06672 116.191112 
L 1027.629107 147.404168 
L 1028.191494 116.191112 
L 1036.064906 116.191112 
L 1036.627293 147.404168 
L 1037.18968 116.191112 
L 1037.752066 147.404168 
L 1038.314453 116.191112 
L 1038.876839 178.617223 
L 1039.439226 116.191112 
L 1040.001613 178.617223 
L 1040.563999 116.191112 
L 1045.625479 116.191112 
L 1046.187865 428.321667 
L 1046.750252 116.191112 
L 1047.312639 178.617223 
L 1047.875025 116.191112 
L 1048.999798 116.191112 
L 1049.562185 147.404168 
L 1050.124572 116.191112 
L 1050.686958 116.191112 
L 1051.249345 147.404168 
L 1051.811732 116.191112 
L 1052.374118 147.404168 
L 1052.936505 116.191112 
L 1055.186051 116.191112 
L 1055.748438 147.404168 
L 1056.310824 116.191112 
L 1058.560371 116.191112 
L 1059.122758 303.469445 
L 1059.685144 116.191112 
L 1060.247531 303.469445 
L 1060.809917 116.191112 
L 1064.746624 116.191112 
L 1065.30901 584.386945 
L 1065.871397 116.191112 
L 1066.433784 116.191112 
L 1066.99617 272.25639 
L 1067.558557 116.191112 
L 1068.120943 241.043334 
L 1068.68333 116.191112 
L 1074.869583 116.191112 
L 1075.431969 147.404168 
L 1075.994356 116.191112 
L 1076.556743 241.043334 
L 1077.681516 116.191112 
L 1078.243902 116.191112 
L 1078.806289 209.830279 
L 1079.368676 147.404168 
L 1079.931062 116.191112 
L 1086.117315 116.191112 
L 1086.679702 303.469445 
L 1087.242088 116.191112 
L 1090.616408 116.191112 
L 1091.178795 147.404168 
L 1091.741181 116.191112 
L 1092.303568 116.191112 
L 1092.865954 147.404168 
L 1093.428341 116.191112 
L 1094.553114 116.191112 
L 1095.115501 334.682501 
L 1095.677888 116.191112 
L 1096.240274 209.830279 
L 1096.802661 116.191112 
L 1097.365047 178.617223 
L 1097.927434 116.191112 
L 1098.489821 116.191112 
L 1099.052207 147.404168 
L 1099.614594 116.191112 
L 1101.301754 116.191112 
L 1101.86414 147.404168 
L 1102.426527 116.191112 
L 1102.988914 178.617223 
L 1103.5513 116.191112 
L 1104.113687 178.617223 
L 1104.676073 116.191112 
L 1105.23846 147.404168 
L 1105.800847 116.191112 
L 1106.363233 116.191112 
L 1106.92562 209.830279 
L 1107.488006 116.191112 
L 1108.61278 116.191112 
L 1109.175166 178.617223 
L 1109.737553 116.191112 
L 1114.236646 116.191112 
L 1114.799032 147.404168 
L 1115.361419 241.043334 
L 1116.486192 116.191112 
L 1117.048579 116.191112 
L 1117.610966 178.617223 
L 1118.173352 116.191112 
L 1122.110058 116.191112 
L 1122.672445 147.404168 
L 1123.234832 116.191112 
L 1123.797218 147.404168 
L 1124.359605 116.191112 
L 1124.921992 116.191112 
L 1125.484378 147.404168 
L 1126.046765 116.191112 
L 1126.609151 178.617223 
L 1127.171538 147.404168 
L 1127.733925 147.404168 
L 1128.296311 116.191112 
L 1128.858698 116.191112 
L 1129.421084 178.617223 
L 1129.983471 116.191112 
L 1130.545858 147.404168 
L 1131.108244 116.191112 
L 1131.670631 209.830279 
L 1132.233018 147.404168 
L 1132.795404 116.191112 
L 1133.357791 178.617223 
L 1134.482564 116.191112 
L 1137.294497 116.191112 
L 1137.856884 365.895556 
L 1138.41927 116.191112 
L 1139.544044 116.191112 
L 1140.10643 147.404168 
L 1140.668817 241.043334 
L 1141.231203 428.321667 
L 1141.79359 116.191112 
L 1142.355977 178.617223 
L 1142.918363 116.191112 
L 1143.48075 209.830279 
L 1144.043136 116.191112 
L 1150.229389 116.191112 
L 1151.354162 178.617223 
L 1151.916549 116.191112 
L 1152.478936 116.191112 
L 1153.041322 147.404168 
L 1153.603709 116.191112 
L 1160.352348 116.191112 
L 1160.914735 147.404168 
L 1161.477122 116.191112 
L 1168.225761 116.191112 
L 1168.788148 303.469445 
L 1169.350534 116.191112 
L 1176.66156 116.191112 
L 1177.223947 147.404168 
L 1177.786333 116.191112 
L 1178.34872 116.191112 
L 1178.911107 147.404168 
L 1179.473493 116.191112 
L 1180.03588 116.191112 
L 1180.598266 147.404168 
L 1181.160653 116.191112 
L 1187.346906 116.191112 
L 1187.909292 209.830279 
L 1188.471679 116.191112 
L 1189.596452 116.191112 
L 1190.158839 178.617223 
L 1190.721226 116.191112 
L 1196.345092 116.191112 
L 1196.907478 147.404168 
L 1197.469865 116.191112 
L 1231.775448 116.191112 
L 1232.337835 209.830279 
L 1232.900222 116.191112 
L 1233.462608 116.191112 
L 1234.024995 241.043334 
L 1234.587382 116.191112 
L 1235.149768 178.617223 
L 1235.712155 116.191112 
L 1236.274541 116.191112 
L 1236.836928 178.617223 
L 1237.399315 116.191112 
L 1238.524088 116.191112 
L 1239.086475 147.404168 
L 1239.648861 116.191112 
L 1240.211248 116.191112 
L 1240.773634 178.617223 
L 1241.336021 116.191112 
L 1241.898408 116.191112 
L 1242.460794 303.469445 
L 1243.023181 178.617223 
L 1243.585567 116.191112 
L 1244.147954 397.108612 
L 1244.710341 116.191112 
L 1245.272727 116.191112 
L 1245.272727 116.191112 
" style="fill:none;stroke:#008000;stroke-linecap:square;stroke-width:1.5;"/>
   </g>
   <g id="line2d_17">
    <path clip-path="url(#p3cce127753)" d="M 230.727273 118.305348 
L 231.289659 118.414038 
L 231.852046 118.272764 
L 232.414433 118.368288 
L 233.539206 118.306598 
L 234.663979 118.735305 
L 235.226366 118.787424 
L 235.788752 119.022152 
L 236.351139 119.634446 
L 236.913525 119.458986 
L 237.475912 117.998146 
L 238.600685 118.979332 
L 239.163072 120.11703 
L 239.725459 119.401163 
L 240.287845 118.908578 
L 240.850232 120.95452 
L 241.412618 124.093856 
L 241.975005 124.249586 
L 242.537392 118.181771 
L 243.099778 118.007796 
L 243.662165 118.273233 
L 245.349325 118.500147 
L 245.911711 118.634389 
L 246.474098 119.076302 
L 247.036485 123.997394 
L 247.598871 132.304387 
L 248.161258 144.614031 
L 248.723644 121.199055 
L 249.286031 117.16761 
L 249.848418 116.932218 
L 250.410804 117.298844 
L 252.660351 117.141668 
L 253.222737 116.983477 
L 253.785124 117.098262 
L 254.347511 117.972516 
L 254.909897 117.884415 
L 255.472284 118.092967 
L 257.159444 117.740952 
L 258.846604 118.45303 
L 261.09615 118.1772 
L 261.658537 118.504718 
L 262.220923 118.500929 
L 262.78331 118.018462 
L 263.345696 117.209649 
L 264.47047 118.611338 
L 265.032856 118.141413 
L 265.595243 119.123342 
L 266.720016 119.00797 
L 267.282403 117.516148 
L 267.844789 118.466665 
L 268.407176 118.382588 
L 269.531949 118.457757 
L 270.094336 118.238266 
L 270.656722 118.231936 
L 271.219109 118.437793 
L 271.781496 118.442168 
L 272.343882 118.563439 
L 273.468656 118.359537 
L 274.593429 118.681858 
L 275.155815 118.204549 
L 275.718202 118.493388 
L 276.280589 276.832291 
L 276.842975 287.30669 
L 277.405362 136.817205 
L 277.967748 121.530362 
L 278.530135 118.946826 
L 279.092522 119.517785 
L 279.654908 118.050928 
L 280.217295 117.657539 
L 280.779682 117.785101 
L 281.342068 117.714268 
L 281.904455 117.41531 
L 283.029228 117.581784 
L 283.591615 117.203906 
L 284.154001 117.523922 
L 284.716388 118.196774 
L 285.278774 117.402104 
L 285.841161 117.767441 
L 286.965934 117.80905 
L 287.528321 117.92661 
L 288.653094 124.325693 
L 289.215481 122.791832 
L 289.777867 119.524896 
L 290.340254 118.613448 
L 291.465027 118.718076 
L 292.027414 147.824866 
L 292.5898 120.85544 
L 293.152187 203.814655 
L 293.714574 119.816939 
L 294.27696 122.358163 
L 294.839347 122.337808 
L 295.401734 119.807054 
L 295.96412 119.282158 
L 296.526507 119.629641 
L 297.088893 120.16196 
L 297.65128 120.390867 
L 298.213667 120.295225 
L 298.776053 120.533353 
L 299.33844 122.161996 
L 299.900826 130.265907 
L 300.463213 143.942704 
L 301.0256 127.417482 
L 301.587986 119.413275 
L 302.150373 119.281494 
L 302.71276 118.485262 
L 303.275146 118.074721 
L 304.399919 118.609541 
L 304.962306 118.633139 
L 305.524693 118.484637 
L 306.649466 117.608742 
L 307.211852 117.492628 
L 307.774239 117.982166 
L 308.336626 118.256706 
L 308.899012 118.066829 
L 309.461399 118.027018 
L 310.023786 118.336212 
L 311.148559 118.206854 
L 311.710945 117.988105 
L 312.273332 117.972399 
L 312.835719 118.310583 
L 313.960492 118.362897 
L 314.522878 118.242837 
L 315.085265 118.593484 
L 317.334812 118.273819 
L 318.459585 118.399661 
L 319.021971 117.485361 
L 320.146745 117.821631 
L 320.709131 118.308629 
L 322.396291 117.683716 
L 323.521064 117.607374 
L 325.208224 117.820185 
L 325.770611 118.572816 
L 326.332997 118.528394 
L 326.895384 252.771582 
L 327.457771 119.651363 
L 328.020157 119.345998 
L 328.582544 118.768163 
L 329.14493 186.842205 
L 330.269704 119.446835 
L 330.83209 120.673494 
L 331.394477 120.838836 
L 331.956864 120.496315 
L 332.51925 122.186023 
L 333.081637 125.176388 
L 333.644023 124.432704 
L 334.20641 122.591172 
L 334.768797 123.02996 
L 335.331183 121.17069 
L 335.89357 121.405575 
L 336.455956 122.405515 
L 337.018343 126.890593 
L 337.58073 124.757878 
L 338.143116 126.525881 
L 338.705503 123.04336 
L 339.26789 122.724398 
L 339.830276 123.603614 
L 340.392663 117.779397 
L 340.955049 117.618158 
L 342.642209 117.562835 
L 343.204596 117.301266 
L 344.891756 117.983143 
L 345.454142 118.384307 
L 346.016529 118.615909 
L 346.578916 118.627787 
L 348.266075 117.907817 
L 348.828462 124.821522 
L 349.390849 127.611226 
L 349.953235 131.373952 
L 350.515622 123.103683 
L 351.078008 123.296178 
L 351.640395 120.510458 
L 352.202782 120.493463 
L 352.765168 124.001691 
L 353.327555 137.275058 
L 353.889942 117.883008 
L 354.452328 119.950165 
L 355.014715 118.883847 
L 355.577101 118.277726 
L 357.826648 117.54713 
L 358.389034 117.83171 
L 358.951421 118.288978 
L 359.513808 118.898849 
L 360.076194 118.773867 
L 361.200968 117.761073 
L 361.763354 118.797972 
L 362.325741 130.046416 
L 362.888127 120.980188 
L 363.450514 119.723876 
L 364.012901 122.278305 
L 364.575287 123.345522 
L 365.137674 119.638666 
L 365.70006 120.223846 
L 366.262447 139.826401 
L 366.824834 123.100323 
L 367.38722 123.258476 
L 367.949607 117.974587 
L 368.511994 117.746188 
L 369.07438 119.369635 
L 369.636767 118.658925 
L 370.199153 118.750347 
L 370.76154 119.016018 
L 371.323927 119.717547 
L 371.886313 120.791523 
L 372.4487 119.294856 
L 374.13586 117.568188 
L 374.698246 117.546309 
L 375.260633 117.657852 
L 375.82302 118.51558 
L 376.385406 117.694812 
L 376.947793 118.127778 
L 377.510179 119.053915 
L 378.634953 119.771423 
L 379.197339 127.207054 
L 379.759726 120.144535 
L 380.322112 169.172096 
L 380.884499 123.779074 
L 381.446886 143.399601 
L 382.009272 157.467051 
L 382.571659 118.426736 
L 383.696432 118.552969 
L 384.821205 118.493037 
L 385.945979 118.325546 
L 386.508365 118.14071 
L 387.070752 117.779318 
L 388.195525 117.85816 
L 388.757912 117.817645 
L 389.320298 118.500889 
L 390.445072 118.633764 
L 391.007458 119.327088 
L 391.569845 121.473985 
L 392.132231 187.813118 
L 392.694618 139.588429 
L 393.257005 128.548694 
L 393.819391 130.911254 
L 394.381778 203.959643 
L 394.944164 142.45639 
L 395.506551 118.693032 
L 396.068938 118.910023 
L 396.631324 118.856225 
L 399.443257 118.000685 
L 400.568031 118.041825 
L 401.130417 118.297612 
L 401.692804 118.262059 
L 402.817577 119.542477 
L 403.379964 132.094741 
L 403.94235 122.400475 
L 404.504737 133.655951 
L 405.067124 133.886108 
L 405.62951 145.824164 
L 406.191897 127.374349 
L 406.754283 118.4803 
L 407.31667 118.977926 
L 408.441443 118.951554 
L 410.128603 118.660722 
L 411.815763 117.612766 
L 412.37815 119.13979 
L 412.940536 119.291769 
L 413.502923 131.721434 
L 414.627696 119.043601 
L 415.190083 207.657043 
L 415.752469 118.971479 
L 416.314856 267.261249 
L 416.877242 123.120288 
L 417.439629 119.976264 
L 418.002016 125.116925 
L 418.564402 123.444094 
L 419.126789 120.548746 
L 419.689176 121.051881 
L 420.251562 119.749505 
L 420.813949 118.764451 
L 421.938722 118.317029 
L 423.625882 118.903264 
L 424.188268 119.44414 
L 424.750655 122.516237 
L 425.313042 120.434976 
L 425.875428 122.009743 
L 426.437815 119.925044 
L 427.000202 119.879997 
L 427.562588 128.731773 
L 428.124975 140.513317 
L 428.687361 120.285263 
L 429.249748 191.519976 
L 429.812135 124.443956 
L 430.374521 118.897795 
L 430.936908 117.93919 
L 432.061681 119.02938 
L 432.624068 119.417768 
L 433.186454 122.48088 
L 433.748841 127.155053 
L 434.311228 125.259059 
L 434.873614 122.10976 
L 435.436001 121.45281 
L 435.998387 119.682541 
L 436.560774 118.960931 
L 437.123161 119.18636 
L 437.685547 119.819791 
L 438.247934 120.209585 
L 438.81032 120.913263 
L 439.372707 119.887147 
L 439.935094 120.416965 
L 440.49748 120.424584 
L 441.059867 120.086205 
L 441.622254 117.731459 
L 442.18464 237.660237 
L 442.747027 120.674901 
L 443.309413 117.723684 
L 443.8718 118.975035 
L 444.434187 118.232014 
L 444.996573 118.506594 
L 445.55896 118.558009 
L 446.121347 118.432167 
L 446.683733 121.483792 
L 447.24612 121.189092 
L 447.808506 125.549695 
L 448.370893 119.873238 
L 448.93328 119.141704 
L 449.495666 119.310445 
L 451.182826 119.48653 
L 451.745213 119.023793 
L 452.307599 119.358343 
L 452.869986 120.890368 
L 453.432373 119.343106 
L 453.994759 205.047213 
L 454.557146 122.066823 
L 455.119532 118.037293 
L 455.681919 118.235609 
L 456.244306 119.3417 
L 457.369079 124.095653 
L 457.931465 124.735686 
L 458.493852 125.072698 
L 459.618625 119.701528 
L 460.181012 120.022287 
L 460.743399 121.261839 
L 461.305785 199.21971 
L 461.868172 125.803138 
L 462.430558 146.704474 
L 462.992945 154.934891 
L 463.555332 146.312804 
L 464.117718 128.744861 
L 464.680105 120.544956 
L 465.242491 245.477931 
L 465.804878 120.013301 
L 466.367265 123.325089 
L 466.929651 119.388349 
L 467.492038 194.364341 
L 468.054425 118.905257 
L 468.616811 128.413944 
L 469.179198 130.690747 
L 469.741584 123.461128 
L 470.303971 126.630196 
L 470.866358 123.953441 
L 471.428744 124.534948 
L 471.991131 126.740371 
L 472.553517 130.586471 
L 473.115904 131.657048 
L 473.678291 146.334917 
L 474.240677 129.141141 
L 475.365451 152.635622 
L 475.927837 132.493639 
L 476.490224 154.538963 
L 477.05261 212.214712 
L 477.614997 197.063248 
L 478.177384 131.633997 
L 478.73977 189.645193 
L 479.302157 125.870962 
L 479.864543 121.692227 
L 480.42693 129.970309 
L 480.989317 126.250833 
L 481.551703 127.735428 
L 482.11409 123.056409 
L 482.676477 119.540016 
L 483.238863 118.979254 
L 484.363636 119.124748 
L 484.926023 119.276259 
L 486.050796 119.301302 
L 487.175569 119.696019 
L 487.737956 119.577952 
L 488.300343 132.016408 
L 488.862729 230.762704 
L 489.425116 120.679316 
L 489.987503 116.723861 
L 490.549889 116.361532 
L 491.112276 117.911724 
L 491.674662 200.893834 
L 492.237049 126.49568 
L 492.799436 122.65298 
L 493.361822 134.829202 
L 493.924209 168.505655 
L 494.486595 125.485153 
L 495.048982 126.78241 
L 495.611369 130.366355 
L 496.173755 142.824345 
L 496.736142 125.388456 
L 497.298529 120.310033 
L 497.860915 119.977279 
L 498.423302 120.360588 
L 498.985688 121.099701 
L 499.548075 124.982722 
L 500.110462 164.297538 
L 500.672848 187.559674 
L 501.235235 122.535342 
L 501.797621 174.012511 
L 502.360008 127.48851 
L 502.922395 148.647427 
L 503.484781 119.151862 
L 505.734328 118.172473 
L 508.546261 117.802018 
L 509.108647 118.039833 
L 510.795807 117.747438 
L 511.358194 121.028439 
L 511.920581 118.048545 
L 512.482967 125.137514 
L 513.045354 128.219613 
L 513.60774 118.217676 
L 514.170127 118.717177 
L 514.732514 118.190171 
L 515.2949 118.191031 
L 515.857287 118.318201 
L 516.98206 118.221583 
L 518.106833 118.574105 
L 518.66922 118.682952 
L 520.918766 118.525112 
L 521.481153 119.204645 
L 522.04354 122.89771 
L 522.605926 129.578991 
L 523.168313 122.537061 
L 523.730699 122.473456 
L 524.293086 157.664779 
L 524.855473 122.765617 
L 525.417859 117.422498 
L 525.980246 174.533737 
L 526.542633 131.423335 
L 527.105019 119.163974 
L 527.667406 119.319196 
L 528.792179 119.99322 
L 529.354566 119.447929 
L 529.916952 119.262819 
L 530.479339 119.208982 
L 531.604112 118.542068 
L 532.166499 117.982635 
L 532.728885 118.089919 
L 534.416045 122.392427 
L 534.978432 120.07128 
L 535.540818 119.2695 
L 536.103205 119.185735 
L 536.665592 119.245472 
L 537.227978 120.484282 
L 537.790365 123.930624 
L 538.352751 125.214989 
L 538.915138 128.134481 
L 539.477525 133.978742 
L 540.039911 137.864145 
L 540.602298 124.957991 
L 541.164685 122.286861 
L 541.727071 122.043303 
L 542.289458 119.969036 
L 542.851844 119.57803 
L 543.976618 119.437771 
L 544.539004 119.338887 
L 545.101391 118.997734 
L 545.663777 119.51505 
L 546.226164 119.797912 
L 546.788551 124.029079 
L 547.350937 191.512237 
L 547.913324 196.125109 
L 548.475711 216.424976 
L 549.038097 120.952762 
L 549.600484 111.6 
L 550.16287 229.057883 
L 550.725257 123.296412 
L 551.287644 136.281252 
L 551.85003 118.045654 
L 552.974803 118.456585 
L 553.53719 118.456936 
L 554.099577 118.223849 
L 554.661963 118.364655 
L 555.786737 119.072747 
L 556.349123 119.828269 
L 556.91151 118.931355 
L 557.473896 235.762563 
L 558.036283 172.333781 
L 558.59867 218.832077 
L 559.161056 138.637365 
L 559.723443 124.241147 
L 560.285829 119.910588 
L 560.848216 118.664082 
L 561.410603 119.318766 
L 561.972989 195.961643 
L 562.535376 150.953339 
L 563.097763 161.599646 
L 563.660149 153.63404 
L 564.222536 118.521127 
L 564.784922 118.645797 
L 565.347309 119.071106 
L 565.909696 119.329706 
L 566.472082 119.226172 
L 567.034469 118.700416 
L 567.596855 118.379736 
L 568.159242 118.348207 
L 568.721629 118.557306 
L 569.284015 118.188218 
L 569.846402 118.467641 
L 570.408789 118.584459 
L 570.971175 119.903751 
L 571.533562 135.244509 
L 572.095948 188.26304 
L 572.658335 186.596113 
L 573.220722 124.608359 
L 573.783108 119.770486 
L 574.345495 118.928503 
L 574.907881 119.292902 
L 575.470268 119.183586 
L 577.719815 118.270576 
L 578.282201 118.087497 
L 578.844588 118.047646 
L 579.969361 118.478972 
L 580.531748 118.391495 
L 581.094134 121.791892 
L 581.656521 123.429599 
L 582.218907 193.49567 
L 582.781294 215.854289 
L 583.343681 186.196155 
L 583.906067 185.566395 
L 584.468454 248.154454 
L 585.030841 120.802892 
L 585.593227 122.243104 
L 586.155614 132.550094 
L 586.718 119.902188 
L 587.280387 119.265866 
L 587.842774 119.190775 
L 588.40516 118.689672 
L 589.529933 118.281789 
L 591.217093 118.754801 
L 591.77948 119.738683 
L 592.341867 126.829996 
L 592.904253 131.33961 
L 593.46664 121.95192 
L 594.029026 208.554193 
L 594.591413 127.117 
L 595.1538 126.448367 
L 596.278573 118.964056 
L 596.840959 124.550068 
L 597.403346 124.26537 
L 597.965733 195.688158 
L 598.528119 128.610033 
L 599.090506 120.700218 
L 599.652893 121.934261 
L 600.215279 122.203566 
L 600.777666 121.453201 
L 601.340052 120.353126 
L 601.902439 119.939929 
L 602.464826 120.059559 
L 603.027212 120.559295 
L 603.589599 121.460077 
L 604.714372 119.257584 
L 605.276759 121.468438 
L 605.839145 137.471615 
L 606.401532 158.178347 
L 606.963919 127.207015 
L 607.526305 192.040729 
L 608.088692 133.561403 
L 608.651078 120.702132 
L 609.775852 123.737739 
L 610.338238 121.584669 
L 610.900625 140.514841 
L 611.463011 128.2697 
L 612.025398 129.398803 
L 612.587785 125.350481 
L 613.150171 123.645535 
L 613.712558 125.899756 
L 614.274945 125.147907 
L 614.837331 123.731722 
L 615.399718 122.676578 
L 615.962104 121.324467 
L 616.524491 120.580158 
L 617.086878 195.188859 
L 617.649264 203.990392 
L 618.211651 179.274756 
L 618.774037 199.764381 
L 619.336424 149.890497 
L 619.898811 140.636034 
L 620.461197 125.122238 
L 621.023584 121.236874 
L 621.585971 120.875834 
L 622.148357 120.370903 
L 622.710744 121.459061 
L 623.27313 121.101108 
L 623.835517 118.974761 
L 624.397904 118.599774 
L 625.522677 118.699166 
L 626.085063 118.942451 
L 626.64745 119.486921 
L 627.209837 119.644526 
L 627.772223 120.407706 
L 628.33461 122.516159 
L 628.896997 120.682402 
L 629.459383 152.09721 
L 630.02177 134.369395 
L 630.584156 231.079634 
L 631.146543 124.964984 
L 631.70893 157.096324 
L 632.271316 167.425542 
L 632.833703 162.178184 
L 633.396089 125.318366 
L 633.958476 121.823031 
L 634.520863 121.343142 
L 635.645636 118.91393 
L 636.208023 118.385244 
L 637.332796 118.053077 
L 638.457569 118.330274 
L 639.019956 118.749487 
L 639.582342 118.975035 
L 640.144729 119.06759 
L 640.707116 153.924991 
L 641.269502 213.867574 
L 641.831889 191.857729 
L 642.394275 127.035384 
L 642.956662 125.951406 
L 643.519049 117.221292 
L 644.081435 120.12586 
L 644.643822 116.588877 
L 645.206208 153.823839 
L 645.768595 174.59851 
L 646.330982 118.689008 
L 646.893368 132.303254 
L 647.455755 141.337836 
L 648.018142 126.568896 
L 648.580528 120.182315 
L 650.267688 120.93393 
L 650.830075 121.523682 
L 651.392461 122.809491 
L 651.954848 122.989406 
L 652.517234 127.476789 
L 653.079621 195.503751 
L 653.642008 136.442921 
L 654.204394 122.825822 
L 654.766781 120.820981 
L 655.329168 121.744111 
L 656.453941 125.657487 
L 657.016327 125.607596 
L 657.578714 139.39113 
L 658.141101 147.461559 
L 658.703487 147.152012 
L 659.265874 145.515009 
L 660.390647 129.090351 
L 660.953034 132.555251 
L 661.51542 280.386079 
L 662.077807 149.544384 
L 662.640194 125.783525 
L 663.20258 125.983599 
L 664.327353 122.04932 
L 664.88974 127.706399 
L 665.452127 141.766192 
L 666.014513 126.166678 
L 666.5769 139.956775 
L 667.139286 202.828739 
L 667.701673 124.022828 
L 668.26406 122.327025 
L 668.826446 121.241718 
L 669.388833 121.253635 
L 670.513606 119.083882 
L 671.075993 119.069973 
L 671.638379 119.908752 
L 672.200766 119.867299 
L 672.763153 121.452654 
L 673.325539 130.262196 
L 673.887926 125.199244 
L 674.450312 129.090546 
L 675.012699 123.400805 
L 675.575086 122.156292 
L 676.137472 193.210851 
L 676.699859 134.449136 
L 677.262246 119.182844 
L 677.824632 119.881638 
L 678.387019 119.794748 
L 678.949405 119.553729 
L 679.511792 120.305852 
L 680.074179 120.056199 
L 680.636565 119.400382 
L 681.198952 119.45293 
L 681.761338 121.707854 
L 682.323725 142.060657 
L 682.886112 133.476896 
L 683.448498 120.166101 
L 684.010885 194.720221 
L 684.573272 189.983689 
L 685.135658 124.111124 
L 685.698045 119.758257 
L 686.260431 119.476528 
L 686.822818 120.861926 
L 687.385205 124.485174 
L 687.947591 129.526208 
L 688.509978 124.591325 
L 689.072364 125.563409 
L 689.634751 139.544281 
L 690.197138 120.922366 
L 690.759524 118.874822 
L 691.321911 249.639355 
L 691.884298 126.431411 
L 692.446684 124.548115 
L 693.009071 120.094018 
L 693.571457 119.527474 
L 694.133844 121.904295 
L 694.696231 123.304265 
L 695.258617 134.23906 
L 695.821004 127.776685 
L 696.38339 123.376426 
L 696.945777 129.464088 
L 697.508164 155.44635 
L 698.07055 171.959144 
L 698.632937 120.95999 
L 699.195324 118.257761 
L 699.75771 119.216952 
L 700.320097 119.560879 
L 700.882483 119.646753 
L 701.44487 120.146996 
L 702.007257 130.045049 
L 702.569643 130.176907 
L 703.13203 135.507914 
L 703.694416 142.575239 
L 704.256803 121.309386 
L 704.81919 118.707254 
L 705.381576 118.48952 
L 705.943963 118.548007 
L 707.068736 118.208729 
L 707.631123 117.769864 
L 708.193509 117.829054 
L 708.755896 118.010023 
L 709.880669 118.122972 
L 710.443056 116.09969 
L 711.005442 139.849334 
L 711.567829 256.371584 
L 712.130216 146.170943 
L 712.692602 231.164143 
L 713.254989 123.326808 
L 713.817376 120.973273 
L 714.379762 120.318901 
L 714.942149 119.364477 
L 715.504535 119.784316 
L 716.066922 120.608288 
L 716.629309 122.594923 
L 717.191695 133.146331 
L 717.754082 159.472281 
L 718.316468 130.204451 
L 718.878855 149.983482 
L 719.441242 224.129361 
L 720.003628 120.562147 
L 720.566015 118.199392 
L 721.128402 119.578343 
L 721.690788 120.140902 
L 722.253175 119.337324 
L 722.815561 120.014005 
L 723.377948 120.310072 
L 723.940335 118.803247 
L 724.502721 118.876111 
L 725.065108 118.800864 
L 725.627494 118.925768 
L 726.189881 120.951941 
L 726.752268 122.350857 
L 727.314654 122.775657 
L 727.877041 123.050158 
L 728.439428 126.982093 
L 729.001814 135.630514 
L 729.564201 165.031218 
L 730.126587 147.277034 
L 730.688974 119.649488 
L 731.251361 119.888397 
L 731.813747 119.809711 
L 732.376134 120.056317 
L 732.93852 119.705591 
L 733.500907 119.749701 
L 734.063294 120.339569 
L 734.62568 127.320043 
L 735.188067 174.871567 
L 735.750454 135.209972 
L 736.31284 120.019631 
L 737.437613 197.283205 
L 738 126.515801 
L 738.562387 122.581405 
L 739.124773 127.585128 
L 739.68716 123.199364 
L 740.249546 124.909388 
L 740.811933 124.333702 
L 741.37432 118.788127 
L 741.936706 117.87078 
L 742.499093 118.249439 
L 743.06148 118.272334 
L 744.186253 118.965228 
L 744.748639 118.994647 
L 745.311026 119.686604 
L 746.435799 122.846881 
L 746.998186 149.81064 
L 747.560572 143.398077 
L 748.122959 189.913134 
L 748.685346 122.830042 
L 749.247732 205.165359 
L 749.810119 119.292746 
L 750.372506 123.240309 
L 750.934892 123.44425 
L 751.497279 125.011086 
L 752.059665 122.530068 
L 752.622052 119.41011 
L 753.184439 118.178372 
L 753.746825 118.121331 
L 754.309212 118.350863 
L 754.871598 118.939677 
L 755.996372 119.162802 
L 756.558758 120.74128 
L 757.121145 124.079283 
L 757.683532 121.402528 
L 758.245918 133.298506 
L 758.808305 189.611244 
L 759.370691 183.398912 
L 759.933078 172.50006 
L 760.495465 125.292111 
L 761.057851 124.591013 
L 761.620238 122.551868 
L 762.182624 123.207647 
L 762.745011 120.695998 
L 763.307398 119.699223 
L 763.869784 119.315289 
L 764.432171 119.299779 
L 764.994558 119.441249 
L 765.556944 119.896562 
L 766.119331 121.094075 
L 766.681717 124.067992 
L 767.244104 121.288094 
L 767.806491 123.435929 
L 768.368877 172.369334 
L 768.931264 129.394896 
L 769.49365 122.552259 
L 770.056037 126.03181 
L 770.618424 121.476212 
L 771.18081 121.898083 
L 771.743197 122.909821 
L 772.305584 124.231419 
L 772.86797 119.96216 
L 773.430357 118.828212 
L 773.992743 119.346466 
L 774.55513 120.17665 
L 775.117517 121.296181 
L 775.679903 119.366822 
L 776.24229 206.582637 
L 776.804676 123.787201 
L 777.367063 121.00953 
L 777.92945 122.797185 
L 778.491836 122.570192 
L 779.054223 124.113273 
L 779.61661 131.462327 
L 780.178996 218.165473 
L 780.741383 118.949561 
L 781.303769 118.312341 
L 781.866156 119.161278 
L 782.428543 118.836846 
L 782.990929 118.326172 
L 783.553316 118.349574 
L 784.678089 118.648337 
L 785.802862 118.345237 
L 786.365249 118.52355 
L 786.927636 119.585649 
L 787.490022 121.182411 
L 788.052409 120.83489 
L 788.614795 124.901379 
L 789.177182 118.915493 
L 790.301955 118.887558 
L 790.864342 119.551854 
L 791.426728 119.859446 
L 791.989115 119.776854 
L 792.551502 120.686075 
L 793.113888 122.633094 
L 793.676275 141.560062 
L 794.238662 131.349963 
L 794.801048 156.221834 
L 795.363435 124.520493 
L 795.925821 119.028755 
L 797.612981 118.210018 
L 798.175368 118.773554 
L 798.737754 119.711139 
L 799.300141 118.729289 
L 799.862528 118.318866 
L 800.424914 118.199079 
L 801.549688 118.559103 
L 802.112074 118.986247 
L 802.674461 126.746154 
L 803.236847 144.288428 
L 803.799234 140.250459 
L 804.361621 134.78271 
L 804.924007 135.149492 
L 806.04878 119.662732 
L 806.611167 168.63634 
L 807.173554 124.302486 
L 807.73594 120.447713 
L 808.298327 121.193429 
L 808.860714 123.302702 
L 809.4231 123.889914 
L 809.985487 123.32255 
L 810.547873 124.560265 
L 811.11026 126.770181 
L 811.672647 131.090348 
L 812.235033 137.195786 
L 812.79742 126.545298 
L 813.359806 122.228922 
L 813.922193 121.674137 
L 814.48458 121.958562 
L 815.046966 119.946805 
L 815.609353 123.282738 
L 816.17174 169.877494 
L 816.734126 127.185761 
L 817.296513 121.789978 
L 818.421286 125.871392 
L 818.983673 136.526959 
L 819.546059 124.041112 
L 820.108446 123.184322 
L 820.670832 125.562237 
L 821.233219 147.640418 
L 821.795606 126.068614 
L 822.357992 121.326382 
L 822.920379 120.592113 
L 823.482766 122.849772 
L 824.607539 120.564218 
L 825.169925 119.726806 
L 825.732312 122.515182 
L 826.294699 122.059361 
L 826.857085 120.258461 
L 827.419472 119.452618 
L 828.544245 118.823797 
L 829.106632 118.695455 
L 829.669018 118.427634 
L 830.793792 118.279796 
L 833.043338 118.03112 
L 834.168111 118.196618 
L 834.730498 118.176458 
L 835.292884 121.169596 
L 835.855271 138.772115 
L 836.417658 136.510472 
L 836.980044 131.805941 
L 837.542431 124.043261 
L 838.104818 119.882107 
L 838.667204 119.043601 
L 839.229591 118.633803 
L 840.354364 118.127778 
L 840.916751 118.289525 
L 841.479137 118.736751 
L 842.603911 118.780118 
L 843.166297 119.048836 
L 843.728684 121.480315 
L 844.29107 145.872376 
L 844.853457 156.252814 
L 845.415844 142.692134 
L 845.97823 221.705271 
L 846.540617 123.652373 
L 847.103003 127.398728 
L 847.66539 122.461853 
L 848.227777 124.709002 
L 848.790163 124.643913 
L 849.35255 125.240384 
L 849.914937 127.264213 
L 850.477323 120.70264 
L 851.03971 119.528217 
L 851.602096 119.372447 
L 852.164483 119.728134 
L 852.72687 126.143744 
L 853.289256 154.813189 
L 853.851643 123.446868 
L 854.414029 121.583419 
L 854.976416 123.978367 
L 855.538803 131.94745 
L 856.101189 122.003492 
L 856.663576 120.115741 
L 857.225963 120.380396 
L 857.788349 120.774801 
L 858.350736 121.797479 
L 858.913122 121.181747 
L 859.475509 119.046375 
L 860.600282 119.133968 
L 861.725055 119.794279 
L 862.287442 123.032655 
L 862.849829 142.173841 
L 863.412215 123.601309 
L 863.974602 127.055114 
L 864.536989 137.452159 
L 865.661762 122.461071 
L 866.224148 124.497715 
L 866.786535 127.680691 
L 867.348922 135.750456 
L 867.911308 126.821167 
L 868.473695 120.53597 
L 869.036081 119.551893 
L 869.598468 119.602214 
L 870.160855 120.209703 
L 870.723241 122.285494 
L 871.285628 136.907142 
L 871.848015 136.535398 
L 872.410401 123.039024 
L 872.972788 124.151131 
L 873.535174 130.476178 
L 874.097561 132.759662 
L 874.659948 129.588485 
L 875.222334 121.180145 
L 875.784721 123.058754 
L 876.347107 130.503019 
L 876.909494 136.332081 
L 877.471881 122.89771 
L 878.034267 119.554667 
L 878.596654 119.027114 
L 879.159041 119.161669 
L 880.283814 119.771736 
L 880.8462 121.146272 
L 881.408587 137.970999 
L 881.970974 169.38534 
L 882.53336 125.827634 
L 883.095747 120.664196 
L 883.658133 149.485427 
L 884.22052 169.714065 
L 884.782907 121.342283 
L 885.345293 118.580825 
L 885.90768 120.133986 
L 886.470067 119.311734 
L 887.032453 119.309077 
L 887.59484 118.59321 
L 888.157226 118.514876 
L 888.719613 118.143523 
L 889.844386 118.399505 
L 890.406773 118.819265 
L 890.969159 119.472817 
L 892.093933 121.545521 
L 892.656319 126.542134 
L 893.218706 153.25698 
L 893.781093 122.107221 
L 894.343479 149.034879 
L 894.905866 167.185697 
L 895.468252 146.825784 
L 896.030639 120.542339 
L 896.593026 119.202926 
L 897.155412 121.842761 
L 898.280185 123.119038 
L 899.404959 119.967903 
L 899.967345 119.841514 
L 900.529732 119.531147 
L 901.092119 119.895468 
L 902.216892 120.126993 
L 902.779278 121.027736 
L 903.341665 125.717146 
L 903.904052 210.435652 
L 904.466438 208.355215 
L 905.028825 243.41202 
L 905.591211 180.513134 
L 906.153598 184.582637 
L 906.715985 120.364144 
L 907.278371 116.406775 
L 907.840758 185.731386 
L 908.403145 171.264417 
L 908.965531 131.284796 
L 910.652691 122.668725 
L 911.215078 120.900253 
L 911.777464 119.512081 
L 912.339851 118.965541 
L 913.464624 119.408587 
L 914.027011 119.653434 
L 914.589397 119.714734 
L 915.151784 119.26067 
L 915.714171 119.433435 
L 916.276557 119.257193 
L 916.838944 119.308257 
L 917.963717 119.713952 
L 918.526104 120.348164 
L 919.08849 120.757025 
L 919.650877 120.947058 
L 920.213263 120.737607 
L 920.77565 119.945477 
L 921.338037 119.490359 
L 922.46281 119.010939 
L 923.587583 119.421401 
L 924.14997 120.277254 
L 925.274743 123.597324 
L 925.83713 123.794858 
L 926.961903 121.414248 
L 927.524289 120.958544 
L 928.086676 118.192984 
L 928.649063 126.698724 
L 929.211449 125.498241 
L 929.773836 137.294944 
L 930.336223 140.907448 
L 930.898609 165.984748 
L 931.460996 142.485614 
L 932.023382 125.888778 
L 932.585769 127.875452 
L 933.148156 160.682105 
L 933.710542 149.681908 
L 934.272929 118.742807 
L 934.835315 120.214938 
L 935.397702 120.724245 
L 935.960089 121.034573 
L 936.522475 231.225873 
L 937.084862 201.955812 
L 937.647249 127.900964 
L 938.209635 128.439652 
L 938.772022 174.76061 
L 939.334408 134.988839 
L 939.896795 179.203962 
L 940.459182 129.82587 
L 941.021568 160.45339 
L 941.583955 119.566427 
L 942.146341 125.386933 
L 942.708728 119.498759 
L 943.271115 177.676546 
L 943.833501 128.419961 
L 944.395888 118.708347 
L 944.958275 120.054988 
L 945.520661 120.971632 
L 946.083048 124.753658 
L 946.645434 134.880656 
L 947.207821 128.620464 
L 947.770208 124.46353 
L 948.332594 279.894699 
L 948.894981 125.089107 
L 949.457367 124.131948 
L 950.019754 119.797131 
L 950.582141 119.961066 
L 951.144527 122.63407 
L 952.269301 140.647364 
L 952.831687 186.321139 
L 953.394074 124.138121 
L 953.95646 122.328861 
L 954.518847 125.489411 
L 955.081234 138.00077 
L 955.64362 147.515281 
L 956.206007 124.621995 
L 956.768393 249.201928 
L 957.33078 146.097219 
L 957.893167 120.392391 
L 958.455553 120.601802 
L 959.580327 119.724931 
L 960.7051 119.569708 
L 961.829873 118.221153 
L 963.517033 118.614151 
L 964.641806 117.974079 
L 965.204193 119.842725 
L 966.328966 128.478018 
L 966.891353 130.644372 
L 967.453739 179.092142 
L 968.016126 133.450173 
L 968.578512 122.491624 
L 969.140899 124.678762 
L 969.703286 121.683006 
L 970.265672 122.698417 
L 970.828059 121.493247 
L 971.390445 119.595299 
L 971.952832 118.973706 
L 973.077605 118.891036 
L 973.639992 118.632631 
L 974.202379 118.607353 
L 974.764765 120.77191 
L 975.889538 136.097314 
L 976.451925 152.524747 
L 977.014312 164.82392 
L 977.576698 127.052418 
L 978.139085 119.949071 
L 978.701471 118.787971 
L 979.263858 118.00174 
L 979.826245 118.01979 
L 980.388631 117.742164 
L 982.075791 117.575025 
L 982.638178 117.992754 
L 983.200564 118.245103 
L 983.762951 118.248853 
L 984.325338 118.54832 
L 984.887724 119.363188 
L 985.450111 123.671048 
L 986.012497 129.137273 
L 986.574884 182.729107 
L 987.137271 128.082246 
L 987.699657 137.854846 
L 988.262044 120.955106 
L 988.824431 119.667147 
L 989.386817 202.800959 
L 989.949204 130.301265 
L 990.51159 131.436111 
L 991.073977 134.475391 
L 991.636364 124.839572 
L 992.19875 121.910702 
L 992.761137 121.009295 
L 993.323523 119.733018 
L 993.88591 122.83391 
L 994.448297 135.204502 
L 995.010683 230.084037 
L 995.57307 119.90211 
L 996.135457 120.333396 
L 996.697843 121.978409 
L 997.26023 130.597215 
L 997.822616 147.783214 
L 998.385003 127.356299 
L 998.94739 124.119329 
L 999.509776 124.62137 
L 1000.072163 120.813792 
L 1000.634549 120.330232 
L 1001.196936 120.500691 
L 1001.759323 118.619543 
L 1002.321709 118.765467 
L 1002.884096 117.770489 
L 1003.446483 146.391411 
L 1004.008869 248.48658 
L 1004.571256 123.526179 
L 1005.133642 123.197059 
L 1005.696029 170.644384 
L 1006.258416 168.505068 
L 1006.820802 125.477495 
L 1007.383189 119.964973 
L 1007.945575 119.090328 
L 1008.507962 118.919126 
L 1009.070349 119.63472 
L 1010.195122 120.111873 
L 1010.757509 118.719209 
L 1011.319895 133.386529 
L 1011.882282 237.869999 
L 1012.444668 119.525365 
L 1013.007055 132.143266 
L 1013.569442 180.513409 
L 1014.131828 127.043745 
L 1014.694215 123.407017 
L 1015.256601 127.545082 
L 1015.818988 124.747095 
L 1016.381375 119.270633 
L 1016.943761 118.558126 
L 1017.506148 118.603368 
L 1018.068535 119.022504 
L 1018.630921 119.057314 
L 1019.193308 118.07519 
L 1019.755694 120.299406 
L 1020.318081 221.356341 
L 1020.880468 156.324665 
L 1021.442854 120.696037 
L 1022.005241 124.153085 
L 1022.567627 197.225107 
L 1023.130014 120.151724 
L 1023.692401 120.760814 
L 1024.254787 124.741273 
L 1024.817174 125.741721 
L 1025.379561 123.667102 
L 1025.941947 119.061768 
L 1026.504334 118.744721 
L 1027.06672 119.158934 
L 1027.629107 119.332128 
L 1028.191494 119.675117 
L 1028.75388 121.128769 
L 1029.316267 144.858215 
L 1029.878653 183.862311 
L 1030.44104 124.13984 
L 1031.003427 179.663849 
L 1031.565813 128.712902 
L 1032.1282 121.413467 
L 1032.690587 120.735966 
L 1033.252973 120.643958 
L 1033.81536 119.199214 
L 1034.377746 118.613956 
L 1034.940133 118.472681 
L 1035.50252 118.137701 
L 1036.064906 117.95642 
L 1036.627293 117.897894 
L 1037.18968 118.266825 
L 1037.752066 118.454397 
L 1038.314453 118.166456 
L 1038.876839 119.263444 
L 1039.439226 123.843109 
L 1040.001613 124.05463 
L 1040.563999 122.23107 
L 1041.126386 127.668463 
L 1041.688772 156.454297 
L 1042.251159 119.873941 
L 1042.813546 119.46637 
L 1043.375932 120.062763 
L 1043.938319 119.763883 
L 1044.500706 119.611317 
L 1045.063092 118.725577 
L 1046.187865 117.988496 
L 1046.750252 118.117151 
L 1047.312639 118.070658 
L 1047.875025 118.195446 
L 1048.999798 118.836534 
L 1049.562185 119.314351 
L 1050.124572 119.596119 
L 1050.686958 121.389752 
L 1051.249345 121.707893 
L 1051.811732 135.276585 
L 1052.374118 126.126358 
L 1052.936505 124.089675 
L 1053.498891 143.122053 
L 1054.061278 275.478305 
L 1054.623665 129.938116 
L 1055.186051 119.817095 
L 1055.748438 118.578403 
L 1056.310824 119.976654 
L 1056.873211 130.931219 
L 1057.435598 126.047399 
L 1057.997984 124.272285 
L 1058.560371 126.787489 
L 1059.122758 132.531497 
L 1059.685144 131.814497 
L 1060.247531 127.355322 
L 1060.809917 127.307541 
L 1061.372304 124.184653 
L 1061.934691 118.802426 
L 1064.184237 119.440975 
L 1064.746624 119.147213 
L 1065.30901 118.442012 
L 1066.433784 122.220756 
L 1066.99617 131.754682 
L 1067.558557 131.996209 
L 1068.120943 126.522443 
L 1068.68333 128.941067 
L 1069.245717 130.6734 
L 1069.808103 123.965943 
L 1070.37049 120.182432 
L 1070.932876 119.694066 
L 1071.495263 119.009767 
L 1072.05765 119.193784 
L 1073.182423 119.811508 
L 1073.74481 119.129671 
L 1074.307196 119.211482 
L 1074.869583 119.868159 
L 1075.431969 124.908959 
L 1075.994356 190.31461 
L 1076.556743 125.497577 
L 1077.119129 130.522749 
L 1077.681516 140.141846 
L 1078.243902 139.241728 
L 1079.368676 127.179002 
L 1080.493449 120.479633 
L 1081.055836 213.884221 
L 1081.618222 120.084095 
L 1082.180609 118.074526 
L 1082.742995 120.471115 
L 1083.305382 121.042738 
L 1083.867769 120.144301 
L 1084.430155 120.725378 
L 1084.992542 164.665883 
L 1085.554928 120.258891 
L 1086.117315 131.374382 
L 1086.679702 127.512498 
L 1087.242088 133.11109 
L 1087.804475 156.784667 
L 1088.366862 121.273325 
L 1088.929248 119.185149 
L 1089.491635 121.188154 
L 1090.054021 119.475161 
L 1090.616408 120.329059 
L 1091.178795 120.225877 
L 1091.741181 120.622704 
L 1092.303568 119.754194 
L 1092.865954 120.235918 
L 1093.428341 122.287252 
L 1093.990728 126.651293 
L 1094.553114 120.528508 
L 1095.115501 119.226485 
L 1095.677888 119.038796 
L 1096.240274 119.072512 
L 1096.802661 119.278056 
L 1097.365047 120.603052 
L 1097.927434 123.196746 
L 1098.489821 123.035468 
L 1099.052207 132.2988 
L 1099.614594 147.687457 
L 1100.17698 148.422117 
L 1100.739367 136.685697 
L 1101.301754 127.552583 
L 1101.86414 124.140895 
L 1102.426527 126.473215 
L 1102.988914 126.166795 
L 1103.5513 121.824515 
L 1104.113687 122.485998 
L 1104.676073 119.090758 
L 1105.23846 119.975052 
L 1105.800847 120.339178 
L 1106.363233 121.775718 
L 1106.92562 126.196253 
L 1107.488006 132.399091 
L 1108.050393 133.04057 
L 1108.61278 132.506415 
L 1109.175166 175.112625 
L 1109.737553 125.714763 
L 1110.29994 120.188019 
L 1110.862326 176.713763 
L 1111.424713 121.807598 
L 1111.987099 121.243086 
L 1112.549486 125.338174 
L 1113.111873 126.292637 
L 1113.674259 121.20472 
L 1114.236646 120.566288 
L 1114.799032 120.603013 
L 1115.361419 122.03127 
L 1115.923806 176.03888 
L 1116.486192 124.793431 
L 1117.048579 125.236125 
L 1117.610966 223.565007 
L 1118.173352 119.441366 
L 1118.735739 121.294774 
L 1119.298125 124.786164 
L 1119.860512 130.691685 
L 1120.422899 131.674043 
L 1120.985285 122.691776 
L 1121.547672 119.885701 
L 1122.110058 119.574553 
L 1123.797218 119.2947 
L 1124.359605 119.049032 
L 1124.921992 121.455271 
L 1125.484378 135.654932 
L 1126.046765 125.664989 
L 1126.609151 123.030741 
L 1127.171538 124.587028 
L 1127.733925 123.509027 
L 1128.296311 121.593186 
L 1128.858698 120.921467 
L 1129.421084 119.160692 
L 1129.983471 118.649431 
L 1130.545858 118.97734 
L 1131.108244 120.053621 
L 1131.670631 119.326189 
L 1132.233018 118.958157 
L 1132.795404 117.959154 
L 1133.357791 134.151819 
L 1133.920177 202.593974 
L 1134.482564 123.916598 
L 1135.044951 140.805243 
L 1135.607337 179.591455 
L 1136.169724 119.688948 
L 1136.73211 119.475122 
L 1137.294497 121.624519 
L 1137.856884 118.11844 
L 1138.41927 117.906176 
L 1138.981657 117.971266 
L 1140.10643 119.251489 
L 1140.668817 119.070911 
L 1141.231203 118.677326 
L 1141.79359 265.155956 
L 1142.355977 123.123452 
L 1142.918363 139.612692 
L 1143.48075 324.913478 
L 1144.043136 130.273018 
L 1144.605523 122.929512 
L 1145.16791 122.969715 
L 1145.730296 135.751042 
L 1146.85507 122.665521 
L 1148.542229 119.695551 
L 1149.104616 119.38241 
L 1149.667003 119.224179 
L 1150.229389 119.456056 
L 1150.791776 120.588284 
L 1151.354162 125.616426 
L 1151.916549 145.511766 
L 1152.478936 130.043095 
L 1153.041322 123.248513 
L 1153.603709 131.891269 
L 1154.166096 132.44699 
L 1154.728482 121.286726 
L 1155.290869 119.833582 
L 1155.853255 123.263203 
L 1156.415642 122.68236 
L 1156.978029 128.323186 
L 1157.540415 130.822098 
L 1158.665188 119.012229 
L 1159.227575 120.673612 
L 1159.789962 121.465703 
L 1160.352348 121.214565 
L 1160.914735 120.639035 
L 1161.477122 120.838484 
L 1162.039508 120.758236 
L 1162.601895 120.955848 
L 1163.164281 119.603542 
L 1163.726668 119.316305 
L 1164.289055 119.248754 
L 1164.851441 119.622765 
L 1165.413828 121.5674 
L 1165.976214 118.991483 
L 1166.538601 119.104706 
L 1167.100988 118.929128 
L 1167.663374 119.085718 
L 1168.225761 119.689534 
L 1168.788148 121.109586 
L 1169.350534 124.03533 
L 1169.912921 131.63177 
L 1170.475307 130.831553 
L 1171.037694 157.825786 
L 1171.600081 176.194807 
L 1172.162467 125.471947 
L 1172.724854 140.052768 
L 1173.28724 119.465003 
L 1173.849627 120.772965 
L 1174.9744 139.434106 
L 1175.536787 137.000127 
L 1176.099174 143.83663 
L 1177.223947 127.763636 
L 1177.786333 189.649412 
L 1178.34872 284.756647 
L 1178.911107 118.250104 
L 1179.473493 138.255697 
L 1180.03588 136.449914 
L 1180.598266 138.349386 
L 1181.72304 122.371759 
L 1182.285426 119.842412 
L 1182.847813 120.855128 
L 1183.4102 119.61288 
L 1183.972586 115.796278 
L 1184.534973 117.969156 
L 1185.097359 118.999218 
L 1186.222133 119.407727 
L 1188.471679 119.429176 
L 1189.034066 119.427848 
L 1190.158839 120.906347 
L 1190.721226 123.935625 
L 1191.283612 173.868695 
L 1191.845999 125.246517 
L 1192.408385 119.214295 
L 1192.970772 117.740288 
L 1193.533159 116.970975 
L 1194.095545 116.548909 
L 1194.657932 118.884355 
L 1195.220318 227.248893 
L 1195.782705 118.242719 
L 1196.345092 121.721333 
L 1196.907478 123.253436 
L 1197.469865 122.384652 
L 1198.032252 120.850986 
L 1198.594638 120.183878 
L 1199.157025 119.740558 
L 1199.719411 119.152526 
L 1200.281798 118.91268 
L 1200.844185 119.293215 
L 1201.406571 123.824825 
L 1201.968958 125.939841 
L 1202.531344 119.444648 
L 1203.093731 117.382452 
L 1203.656118 118.044013 
L 1204.218504 203.458693 
L 1204.780891 137.100379 
L 1205.343278 119.085288 
L 1205.905664 120.638019 
L 1206.468051 121.247227 
L 1207.030437 120.211187 
L 1207.592824 120.759369 
L 1208.155211 119.697465 
L 1208.717597 119.553924 
L 1209.279984 119.09822 
L 1209.84237 118.378095 
L 1210.404757 116.3209 
L 1210.967144 118.029714 
L 1211.52953 268.509948 
L 1212.091917 139.122841 
L 1212.654304 119.580765 
L 1213.21669 118.421735 
L 1213.779077 118.780508 
L 1214.341463 119.897852 
L 1214.90385 122.031622 
L 1215.466237 122.877667 
L 1216.028623 123.286215 
L 1216.59101 153.00393 
L 1217.153396 121.019844 
L 1217.715783 122.356327 
L 1218.27817 142.548086 
L 1218.840556 133.98089 
L 1219.402943 119.911448 
L 1219.96533 128.424532 
L 1220.527716 120.268619 
L 1221.090103 121.389361 
L 1221.652489 130.568226 
L 1222.214876 137.608358 
L 1222.777263 196.762258 
L 1223.339649 175.419434 
L 1223.902036 128.739001 
L 1224.464422 127.306564 
L 1225.026809 121.672145 
L 1225.589196 121.780914 
L 1226.151582 118.447443 
L 1226.713969 118.606767 
L 1227.276356 119.241722 
L 1227.838742 123.022497 
L 1227.838742 123.022497 
" style="fill:none;stroke:#ff0000;stroke-linecap:square;stroke-width:1.5;"/>
   </g>
   <g id="patch_3">
    <path d="M 180 640.8 
L 180 86.4 
" style="fill:none;stroke:#000000;stroke-linecap:square;stroke-linejoin:miter;stroke-width:0.8;"/>
   </g>
   <g id="patch_4">
    <path d="M 1296 640.8 
L 1296 86.4 
" style="fill:none;stroke:#000000;stroke-linecap:square;stroke-linejoin:miter;stroke-width:0.8;"/>
   </g>
   <g id="patch_5">
    <path d="M 180 640.8 
L 1296 640.8 
" style="fill:none;stroke:#000000;stroke-linecap:square;stroke-linejoin:miter;stroke-width:0.8;"/>
   </g>
   <g id="patch_6">
    <path d="M 180 86.4 
L 1296 86.4 
" style="fill:none;stroke:#000000;stroke-linecap:square;stroke-linejoin:miter;stroke-width:0.8;"/>
   </g>
   <g id="text_18">
    <!-- Delta Prediction with Timelag 30 for container number 1 -->
    <g transform="translate(568.8225 80.4)scale(0.12 -0.12)">
     <defs>
      <path id="DejaVuSans-20" transform="scale(0.015625)"/>
      <path d="M 1259 4147 
L 1259 2394 
L 2053 2394 
Q 2494 2394 2734 2622 
Q 2975 2850 2975 3272 
Q 2975 3691 2734 3919 
Q 2494 4147 2053 4147 
L 1259 4147 
z
M 628 4666 
L 2053 4666 
Q 2838 4666 3239 4311 
Q 3641 3956 3641 3272 
Q 3641 2581 3239 2228 
Q 2838 1875 2053 1875 
L 1259 1875 
L 1259 0 
L 628 0 
L 628 4666 
z
" id="DejaVuSans-50" transform="scale(0.015625)"/>
      <path d="M 2631 2963 
Q 2534 3019 2420 3045 
Q 2306 3072 2169 3072 
Q 1681 3072 1420 2755 
Q 1159 2438 1159 1844 
L 1159 0 
L 581 0 
L 581 3500 
L 1159 3500 
L 1159 2956 
Q 1341 3275 1631 3429 
Q 1922 3584 2338 3584 
Q 2397 3584 2469 3576 
Q 2541 3569 2628 3553 
L 2631 2963 
z
" id="DejaVuSans-72" transform="scale(0.015625)"/>
      <path d="M 2906 2969 
L 2906 4863 
L 3481 4863 
L 3481 0 
L 2906 0 
L 2906 525 
Q 2725 213 2448 61 
Q 2172 -91 1784 -91 
Q 1150 -91 751 415 
Q 353 922 353 1747 
Q 353 2572 751 3078 
Q 1150 3584 1784 3584 
Q 2172 3584 2448 3432 
Q 2725 3281 2906 2969 
z
M 947 1747 
Q 947 1113 1208 752 
Q 1469 391 1925 391 
Q 2381 391 2643 752 
Q 2906 1113 2906 1747 
Q 2906 2381 2643 2742 
Q 2381 3103 1925 3103 
Q 1469 3103 1208 2742 
Q 947 2381 947 1747 
z
" id="DejaVuSans-64" transform="scale(0.015625)"/>
      <path d="M 3122 3366 
L 3122 2828 
Q 2878 2963 2633 3030 
Q 2388 3097 2138 3097 
Q 1578 3097 1268 2742 
Q 959 2388 959 1747 
Q 959 1106 1268 751 
Q 1578 397 2138 397 
Q 2388 397 2633 464 
Q 2878 531 3122 666 
L 3122 134 
Q 2881 22 2623 -34 
Q 2366 -91 2075 -91 
Q 1284 -91 818 406 
Q 353 903 353 1747 
Q 353 2603 823 3093 
Q 1294 3584 2113 3584 
Q 2378 3584 2631 3529 
Q 2884 3475 3122 3366 
z
" id="DejaVuSans-63" transform="scale(0.015625)"/>
      <path d="M 1959 3097 
Q 1497 3097 1228 2736 
Q 959 2375 959 1747 
Q 959 1119 1226 758 
Q 1494 397 1959 397 
Q 2419 397 2687 759 
Q 2956 1122 2956 1747 
Q 2956 2369 2687 2733 
Q 2419 3097 1959 3097 
z
M 1959 3584 
Q 2709 3584 3137 3096 
Q 3566 2609 3566 1747 
Q 3566 888 3137 398 
Q 2709 -91 1959 -91 
Q 1206 -91 779 398 
Q 353 888 353 1747 
Q 353 2609 779 3096 
Q 1206 3584 1959 3584 
z
" id="DejaVuSans-6f" transform="scale(0.015625)"/>
      <path d="M 3513 2113 
L 3513 0 
L 2938 0 
L 2938 2094 
Q 2938 2591 2744 2837 
Q 2550 3084 2163 3084 
Q 1697 3084 1428 2787 
Q 1159 2491 1159 1978 
L 1159 0 
L 581 0 
L 581 3500 
L 1159 3500 
L 1159 2956 
Q 1366 3272 1645 3428 
Q 1925 3584 2291 3584 
Q 2894 3584 3203 3211 
Q 3513 2838 3513 2113 
z
" id="DejaVuSans-6e" transform="scale(0.015625)"/>
      <path d="M 269 3500 
L 844 3500 
L 1563 769 
L 2278 3500 
L 2956 3500 
L 3675 769 
L 4391 3500 
L 4966 3500 
L 4050 0 
L 3372 0 
L 2619 2869 
L 1863 0 
L 1184 0 
L 269 3500 
z
" id="DejaVuSans-77" transform="scale(0.015625)"/>
      <path d="M 3513 2113 
L 3513 0 
L 2938 0 
L 2938 2094 
Q 2938 2591 2744 2837 
Q 2550 3084 2163 3084 
Q 1697 3084 1428 2787 
Q 1159 2491 1159 1978 
L 1159 0 
L 581 0 
L 581 4863 
L 1159 4863 
L 1159 2956 
Q 1366 3272 1645 3428 
Q 1925 3584 2291 3584 
Q 2894 3584 3203 3211 
Q 3513 2838 3513 2113 
z
" id="DejaVuSans-68" transform="scale(0.015625)"/>
      <path d="M 2906 1791 
Q 2906 2416 2648 2759 
Q 2391 3103 1925 3103 
Q 1463 3103 1205 2759 
Q 947 2416 947 1791 
Q 947 1169 1205 825 
Q 1463 481 1925 481 
Q 2391 481 2648 825 
Q 2906 1169 2906 1791 
z
M 3481 434 
Q 3481 -459 3084 -895 
Q 2688 -1331 1869 -1331 
Q 1566 -1331 1297 -1286 
Q 1028 -1241 775 -1147 
L 775 -588 
Q 1028 -725 1275 -790 
Q 1522 -856 1778 -856 
Q 2344 -856 2625 -561 
Q 2906 -266 2906 331 
L 2906 616 
Q 2728 306 2450 153 
Q 2172 0 1784 0 
Q 1141 0 747 490 
Q 353 981 353 1791 
Q 353 2603 747 3093 
Q 1141 3584 1784 3584 
Q 2172 3584 2450 3431 
Q 2728 3278 2906 2969 
L 2906 3500 
L 3481 3500 
L 3481 434 
z
" id="DejaVuSans-67" transform="scale(0.015625)"/>
      <path d="M 2375 4863 
L 2375 4384 
L 1825 4384 
Q 1516 4384 1395 4259 
Q 1275 4134 1275 3809 
L 1275 3500 
L 2222 3500 
L 2222 3053 
L 1275 3053 
L 1275 0 
L 697 0 
L 697 3053 
L 147 3053 
L 147 3500 
L 697 3500 
L 697 3744 
Q 697 4328 969 4595 
Q 1241 4863 1831 4863 
L 2375 4863 
z
" id="DejaVuSans-66" transform="scale(0.015625)"/>
      <path d="M 544 1381 
L 544 3500 
L 1119 3500 
L 1119 1403 
Q 1119 906 1312 657 
Q 1506 409 1894 409 
Q 2359 409 2629 706 
Q 2900 1003 2900 1516 
L 2900 3500 
L 3475 3500 
L 3475 0 
L 2900 0 
L 2900 538 
Q 2691 219 2414 64 
Q 2138 -91 1772 -91 
Q 1169 -91 856 284 
Q 544 659 544 1381 
z
M 1991 3584 
L 1991 3584 
z
" id="DejaVuSans-75" transform="scale(0.015625)"/>
      <path d="M 3116 1747 
Q 3116 2381 2855 2742 
Q 2594 3103 2138 3103 
Q 1681 3103 1420 2742 
Q 1159 2381 1159 1747 
Q 1159 1113 1420 752 
Q 1681 391 2138 391 
Q 2594 391 2855 752 
Q 3116 1113 3116 1747 
z
M 1159 2969 
Q 1341 3281 1617 3432 
Q 1894 3584 2278 3584 
Q 2916 3584 3314 3078 
Q 3713 2572 3713 1747 
Q 3713 922 3314 415 
Q 2916 -91 2278 -91 
Q 1894 -91 1617 61 
Q 1341 213 1159 525 
L 1159 0 
L 581 0 
L 581 4863 
L 1159 4863 
L 1159 2969 
z
" id="DejaVuSans-62" transform="scale(0.015625)"/>
     </defs>
     <use xlink:href="#DejaVuSans-44"/>
     <use x="77.001953" xlink:href="#DejaVuSans-65"/>
     <use x="138.525391" xlink:href="#DejaVuSans-6c"/>
     <use x="166.308594" xlink:href="#DejaVuSans-74"/>
     <use x="205.517578" xlink:href="#DejaVuSans-61"/>
     <use x="266.796875" xlink:href="#DejaVuSans-20"/>
     <use x="298.583984" xlink:href="#DejaVuSans-50"/>
     <use x="357.136719" xlink:href="#DejaVuSans-72"/>
     <use x="396" xlink:href="#DejaVuSans-65"/>
     <use x="457.523438" xlink:href="#DejaVuSans-64"/>
     <use x="521" xlink:href="#DejaVuSans-69"/>
     <use x="548.783203" xlink:href="#DejaVuSans-63"/>
     <use x="603.763672" xlink:href="#DejaVuSans-74"/>
     <use x="642.972656" xlink:href="#DejaVuSans-69"/>
     <use x="670.755859" xlink:href="#DejaVuSans-6f"/>
     <use x="731.9375" xlink:href="#DejaVuSans-6e"/>
     <use x="795.316406" xlink:href="#DejaVuSans-20"/>
     <use x="827.103516" xlink:href="#DejaVuSans-77"/>
     <use x="908.890625" xlink:href="#DejaVuSans-69"/>
     <use x="936.673828" xlink:href="#DejaVuSans-74"/>
     <use x="975.882812" xlink:href="#DejaVuSans-68"/>
     <use x="1039.261719" xlink:href="#DejaVuSans-20"/>
     <use x="1071.048828" xlink:href="#DejaVuSans-54"/>
     <use x="1129.007812" xlink:href="#DejaVuSans-69"/>
     <use x="1156.791016" xlink:href="#DejaVuSans-6d"/>
     <use x="1254.203125" xlink:href="#DejaVuSans-65"/>
     <use x="1315.726562" xlink:href="#DejaVuSans-6c"/>
     <use x="1343.509766" xlink:href="#DejaVuSans-61"/>
     <use x="1404.789062" xlink:href="#DejaVuSans-67"/>
     <use x="1468.265625" xlink:href="#DejaVuSans-20"/>
     <use x="1500.052734" xlink:href="#DejaVuSans-33"/>
     <use x="1563.675781" xlink:href="#DejaVuSans-30"/>
     <use x="1627.298828" xlink:href="#DejaVuSans-20"/>
     <use x="1659.085938" xlink:href="#DejaVuSans-66"/>
     <use x="1694.291016" xlink:href="#DejaVuSans-6f"/>
     <use x="1755.472656" xlink:href="#DejaVuSans-72"/>
     <use x="1796.585938" xlink:href="#DejaVuSans-20"/>
     <use x="1828.373047" xlink:href="#DejaVuSans-63"/>
     <use x="1883.353516" xlink:href="#DejaVuSans-6f"/>
     <use x="1944.535156" xlink:href="#DejaVuSans-6e"/>
     <use x="2007.914062" xlink:href="#DejaVuSans-74"/>
     <use x="2047.123047" xlink:href="#DejaVuSans-61"/>
     <use x="2108.402344" xlink:href="#DejaVuSans-69"/>
     <use x="2136.185547" xlink:href="#DejaVuSans-6e"/>
     <use x="2199.564453" xlink:href="#DejaVuSans-65"/>
     <use x="2261.087891" xlink:href="#DejaVuSans-72"/>
     <use x="2302.201172" xlink:href="#DejaVuSans-20"/>
     <use x="2333.988281" xlink:href="#DejaVuSans-6e"/>
     <use x="2397.367188" xlink:href="#DejaVuSans-75"/>
     <use x="2460.746094" xlink:href="#DejaVuSans-6d"/>
     <use x="2558.158203" xlink:href="#DejaVuSans-62"/>
     <use x="2621.634766" xlink:href="#DejaVuSans-65"/>
     <use x="2683.158203" xlink:href="#DejaVuSans-72"/>
     <use x="2724.271484" xlink:href="#DejaVuSans-20"/>
     <use x="2756.058594" xlink:href="#DejaVuSans-31"/>
    </g>
   </g>
   <g id="legend_1">
    <g id="patch_7">
     <path d="M 187 635.8 
L 295.798437 635.8 
Q 297.798437 635.8 297.798437 633.8 
L 297.798437 605.44375 
Q 297.798437 603.44375 295.798437 603.44375 
L 187 603.44375 
Q 185 603.44375 185 605.44375 
L 185 633.8 
Q 185 635.8 187 635.8 
z
" style="fill:#ffffff;opacity:0.8;stroke:#cccccc;stroke-linejoin:miter;"/>
    </g>
    <g id="line2d_18">
     <path d="M 189 611.542187 
L 209 611.542187 
" style="fill:none;stroke:#008000;stroke-linecap:square;stroke-width:1.5;"/>
    </g>
    <g id="line2d_19"/>
    <g id="text_19">
     <!-- Real Delta -->
     <g transform="translate(217 615.042187)scale(0.1 -0.1)">
      <defs>
       <path d="M 2841 2188 
Q 3044 2119 3236 1894 
Q 3428 1669 3622 1275 
L 4263 0 
L 3584 0 
L 2988 1197 
Q 2756 1666 2539 1819 
Q 2322 1972 1947 1972 
L 1259 1972 
L 1259 0 
L 628 0 
L 628 4666 
L 2053 4666 
Q 2853 4666 3247 4331 
Q 3641 3997 3641 3322 
Q 3641 2881 3436 2590 
Q 3231 2300 2841 2188 
z
M 1259 4147 
L 1259 2491 
L 2053 2491 
Q 2509 2491 2742 2702 
Q 2975 2913 2975 3322 
Q 2975 3731 2742 3939 
Q 2509 4147 2053 4147 
L 1259 4147 
z
" id="DejaVuSans-52" transform="scale(0.015625)"/>
      </defs>
      <use xlink:href="#DejaVuSans-52"/>
      <use x="64.982422" xlink:href="#DejaVuSans-65"/>
      <use x="126.505859" xlink:href="#DejaVuSans-61"/>
      <use x="187.785156" xlink:href="#DejaVuSans-6c"/>
      <use x="215.568359" xlink:href="#DejaVuSans-20"/>
      <use x="247.355469" xlink:href="#DejaVuSans-44"/>
      <use x="324.357422" xlink:href="#DejaVuSans-65"/>
      <use x="385.880859" xlink:href="#DejaVuSans-6c"/>
      <use x="413.664062" xlink:href="#DejaVuSans-74"/>
      <use x="452.873047" xlink:href="#DejaVuSans-61"/>
     </g>
    </g>
    <g id="line2d_20">
     <path d="M 189 626.220312 
L 209 626.220312 
" style="fill:none;stroke:#ff0000;stroke-linecap:square;stroke-width:1.5;"/>
    </g>
    <g id="line2d_21"/>
    <g id="text_20">
     <!-- Predicted Delta -->
     <g transform="translate(217 629.720312)scale(0.1 -0.1)">
      <use xlink:href="#DejaVuSans-50"/>
      <use x="58.552734" xlink:href="#DejaVuSans-72"/>
      <use x="97.416016" xlink:href="#DejaVuSans-65"/>
      <use x="158.939453" xlink:href="#DejaVuSans-64"/>
      <use x="222.416016" xlink:href="#DejaVuSans-69"/>
      <use x="250.199219" xlink:href="#DejaVuSans-63"/>
      <use x="305.179688" xlink:href="#DejaVuSans-74"/>
      <use x="344.388672" xlink:href="#DejaVuSans-65"/>
      <use x="405.912109" xlink:href="#DejaVuSans-64"/>
      <use x="469.388672" xlink:href="#DejaVuSans-20"/>
      <use x="501.175781" xlink:href="#DejaVuSans-44"/>
      <use x="578.177734" xlink:href="#DejaVuSans-65"/>
      <use x="639.701172" xlink:href="#DejaVuSans-6c"/>
      <use x="667.484375" xlink:href="#DejaVuSans-74"/>
      <use x="706.693359" xlink:href="#DejaVuSans-61"/>
     </g>
    </g>
   </g>
  </g>
 </g>
 <defs>
  <clipPath id="p3cce127753">
   <rect height="554.4" width="1116" x="180" y="86.4"/>
  </clipPath>
 </defs>
</svg>
